<?xml version="1.0" standalone="no"?>
<!DOCTYPE svg PUBLIC "-//W3C//DTD SVG 1.1//EN" "http://www.w3.org/Graphics/SVG/1.1/DTD/svg11.dtd" >
<svg xmlns="http://www.w3.org/2000/svg" xmlns:xlink="http://www.w3.org/1999/xlink" version="1.1">
<metadata></metadata>
<defs>
<font id="milliardhairline" horiz-adv-x="1208" >
<font-face units-per-em="2048" ascent="1638" descent="-410" />
<missing-glyph horiz-adv-x="491" />
<glyph unicode="&#xfb01;" horiz-adv-x="1017" d="M70 1004v40h172v138q0 125 71 198.5t187 73.5q46 0 125 -14v-47q-68 20 -125 20q-97 0 -157 -62.5t-60 -168.5v-138h274v-40h-274v-1004h-41v1004h-172zM768 1386q0 20 13.5 33t33.5 13t33.5 -13t13.5 -33t-13.5 -33.5t-33.5 -13.5t-33.5 13.5t-13.5 33.5zM793 0v1044h41 v-1044h-41z" />
<glyph unicode="&#xfb02;" horiz-adv-x="1005" d="M70 1004v40h172v138q0 125 71 198.5t187 73.5q46 0 125 -14v-47q-68 20 -125 20q-97 0 -157 -62.5t-60 -168.5v-138h274v-40h-274v-1004h-41v1004h-172zM788 0v1434h41v-1434h-41z" />
<glyph horiz-adv-x="0" />
<glyph horiz-adv-x="682" />
<glyph unicode=" "  horiz-adv-x="491" />
<glyph unicode="&#x09;" horiz-adv-x="491" />
<glyph unicode="&#xa0;" horiz-adv-x="491" />
<glyph unicode="!" horiz-adv-x="503" d="M205 25q0 20 13.5 33.5t33.5 13.5t33.5 -13.5t13.5 -33.5t-13.5 -32.5t-33.5 -12.5t-33.5 12.5t-13.5 32.5zM231 438v996h41v-996h-41z" />
<glyph unicode="&#x22;" horiz-adv-x="430" d="M102 969v465h41v-465h-41zM287 969v465h41v-465h-41z" />
<glyph unicode="#" horiz-adv-x="1314" d="M82 365v41h237l103 598h-279v40h285l68 390h41l-68 -390h471l68 390h41l-68 -390h252v-40h-258l-103 -598h299v-41h-305l-63 -365h-41l63 365h-471l-63 -365h-41l63 365h-231zM360 406h471l103 598h-471z" />
<glyph unicode="$" horiz-adv-x="1202" d="M139 139v56q136 -96 249 -135.5t233 -39.5q173 0 281 95t108 243q0 75 -28.5 132t-76 93t-109.5 63.5t-130.5 48.5l-137 42t-130.5 49.5t-109.5 66t-76 97.5t-28.5 137q0 153 113.5 255.5t296.5 111.5v184h41v-184q189 -3 385 -82v-51q-200 92 -393 92q-179 0 -290.5 -91 t-111.5 -232q0 -91 45.5 -154.5t118.5 -99t161 -63t176 -57t161 -69.5t118.5 -112.5t45.5 -174.5q0 -164 -115.5 -270.5t-300.5 -109.5v-185h-41v185q-238 7 -455 159z" />
<glyph unicode="%" horiz-adv-x="1734" d="M82 1108q0 148 101 247t253 99q151 0 251.5 -99t100.5 -247q0 -150 -101 -250t-253 -100q-151 0 -251.5 100.5t-100.5 249.5zM123 1108q0 -132 89.5 -220.5t223.5 -88.5q133 0 222.5 88.5t89.5 220.5q0 130 -90 217.5t-224 87.5q-133 0 -222 -87t-89 -218zM397 0 l885 1434h49l-882 -1434h-52zM946 330q0 148 101 247t253 99q151 0 252 -99t101 -247q0 -149 -101.5 -249.5t-253.5 -100.5q-151 0 -251.5 100.5t-100.5 249.5zM987 330q0 -132 90 -221t223 -89t222.5 89t89.5 221q0 130 -90 217.5t-224 87.5q-133 0 -222 -87t-89 -218z" />
<glyph unicode="&#x26;" horiz-adv-x="1396" d="M123 340q0 68 24.5 128.5t59 103t87 82t94.5 63t95 47.5q-106 103 -152 186t-46 180q0 138 95.5 231t237.5 93q145 0 241.5 -88t96.5 -219q0 -227 -385 -387l-16 -6l4 -4l516 -486q137 162 248 416h45q-114 -274 -262 -444l250 -236h-51l-226 209q-220 -229 -512 -229 q-190 0 -317 103t-127 257zM164 340q0 -137 116 -228.5t287 -91.5q280 0 482 218l-535 497q-350 -152 -350 -395zM326 1128q0 -86 42.5 -161.5t155.5 -184.5l27 13q147 66 229 126.5t108.5 111t26.5 114.5q0 114 -85 190t-212 76q-126 0 -209 -81.5t-83 -203.5z" />
<glyph unicode="'" horiz-adv-x="245" d="M102 969v465h41v-465h-41z" />
<glyph unicode="(" horiz-adv-x="645" d="M102 717q0 256 105 481t291 379h45q-186 -155 -293 -380t-107 -480q0 -258 106.5 -482t293.5 -378h-45q-186 153 -291 377t-105 483z" />
<glyph unicode=")" horiz-adv-x="661" d="M119 -143q187 154 293 378t106 482q0 255 -106.5 480t-292.5 380h45q185 -154 290 -379t105 -481q0 -259 -104.5 -483t-290.5 -377h-45z" />
<glyph unicode="*" horiz-adv-x="937" d="M164 1069l272 150l-272 147l24 43l265 -160l-9 307h50l-9 -309l265 162l24 -43l-268 -147l268 -150l-24 -43l-265 162l9 -309h-50l9 307l-265 -160z" />
<glyph unicode="+" d="M135 700v41h449v469h41v-469h448v-41h-448v-469h-41v469h-449z" />
<glyph unicode="," horiz-adv-x="417" d="M39 -293l168 465h53l-180 -465h-41z" />
<glyph unicode="-" horiz-adv-x="880" d="M143 541v41h594v-41h-594z" />
<glyph unicode="." horiz-adv-x="417" d="M162 25q0 20 13.5 33.5t33.5 13.5t33.5 -13.5t13.5 -33.5t-13.5 -32.5t-33.5 -12.5t-33.5 12.5t-13.5 32.5z" />
<glyph unicode="/" horiz-adv-x="796" d="M86 0l576 1434h49l-576 -1434h-49z" />
<glyph unicode="0" horiz-adv-x="1343" d="M111 717q0 341 150.5 539t410.5 198t410.5 -198t150.5 -539t-150.5 -539t-410.5 -198t-410.5 198t-150.5 539zM152 717q0 -321 139.5 -509t378.5 -188q241 0 381.5 188t140.5 509t-140.5 508.5t-381.5 187.5q-239 0 -378.5 -187.5t-139.5 -508.5z" />
<glyph unicode="1" horiz-adv-x="790" d="M82 1221v47l467 186h10v-1454h-41v1403z" />
<glyph unicode="2" horiz-adv-x="1134" d="M84 1237v57q147 88 258 124t213 36q108 0 194.5 -33.5t140.5 -91.5t82.5 -133.5t28.5 -161.5q0 -58 -15 -110.5t-36 -94t-70 -99.5t-89.5 -100t-122.5 -122l-475 -467h847v-41h-938v10l535 525q151 148 193 196q107 123 126 238q5 31 5 65q0 73 -23.5 139t-70.5 120.5 t-127 87t-183 32.5q-207 0 -473 -176z" />
<glyph unicode="3" horiz-adv-x="1187" d="M123 80v45q227 -105 444 -105q179 0 297.5 97t118.5 243q0 158 -116 259.5t-300 101.5h-125v10l527 662h-828v41h903v-11l-528 -663h51q204 0 330.5 -113.5t126.5 -286.5q0 -163 -129 -271.5t-322 -108.5q-213 0 -450 100z" />
<glyph unicode="4" horiz-adv-x="1232" d="M70 401v11l430 1024h45l-416 -994h731v562h41v-562h254v-41h-254v-401h-41v401h-790z" />
<glyph unicode="5" horiz-adv-x="1204" d="M143 80v45q225 -105 416 -105q197 0 329 118t132 296t-139 298t-346 120h-330l39 582h792v-41h-755l-27 -502h281q224 0 375 -131t151 -326t-143.5 -324.5t-358.5 -129.5q-179 0 -416 100z" />
<glyph unicode="6" horiz-adv-x="1204" d="M111 643q0 167 40.5 311t120 257t209.5 178t297 65q105 0 203 -31v-49q-98 39 -203 39q-140 0 -253 -50.5t-184.5 -133t-117.5 -191.5t-62 -223.5t-9 -232.5q49 143 176 235t295 92q204 0 337.5 -132.5t133.5 -330.5q0 -199 -136.5 -332.5t-334.5 -133.5q-212 0 -355 155 q-157 171 -157 508zM162 483q35 -218 155.5 -338t300.5 -120q185 0 310 121t125 303q0 180 -122.5 299.5t-314.5 119.5q-176 0 -299.5 -107.5t-154.5 -277.5z" />
<glyph unicode="7" horiz-adv-x="1159" d="M57 1393v41h1041v-11l-813 -1423h-49l798 1393h-977z" />
<glyph unicode="8" horiz-adv-x="1179" d="M90 369q0 61 21.5 120.5t64 113t114.5 92.5t165 55q-71 13 -127 41.5t-90 63.5t-56 78t-30.5 81t-8.5 76q0 152 128 258t317 106q191 0 319.5 -107t128.5 -260q0 -48 -14.5 -96t-47 -97.5t-95.5 -88t-150 -55.5q178 -32 269.5 -141t91.5 -240q0 -168 -142 -278.5 t-356 -110.5q-216 0 -359 110.5t-143 278.5zM131 373q0 -154 131 -253.5t330 -99.5q196 0 326.5 99.5t130.5 253.5q0 150 -125 254t-332 104q-209 0 -335 -104t-126 -254zM184 1083q0 -134 111.5 -222.5t296.5 -88.5q181 0 292 88.5t111 222.5q0 139 -115.5 234.5 t-287.5 95.5q-176 0 -292 -95.5t-116 -234.5z" />
<glyph unicode="9" horiz-adv-x="1204" d="M111 987q0 131 63 238.5t170.5 168t237.5 60.5q210 0 354 -156q158 -172 158 -507q0 -167 -40.5 -311t-120.5 -257t-210 -178t-297 -65q-108 0 -203 30v49q98 -39 203 -39q140 0 253 50.5t184.5 133t117.5 192t62.5 224t9.5 232.5q-49 -143 -176 -235.5t-295 -92.5 q-204 0 -337.5 132.5t-133.5 330.5zM152 985q0 -180 122 -300t314 -120q176 0 299.5 107.5t154.5 277.5q-35 218 -155.5 338.5t-300.5 120.5q-185 0 -309.5 -121t-124.5 -303z" />
<glyph unicode=":" horiz-adv-x="417" d="M162 25q0 20 13.5 33.5t33.5 13.5t33.5 -13.5t13.5 -33.5t-13.5 -32.5t-33.5 -12.5t-33.5 12.5t-13.5 32.5zM162 1020q0 20 13.5 32.5t33.5 12.5t33.5 -12.5t13.5 -32.5t-13.5 -33.5t-33.5 -13.5t-33.5 13.5t-13.5 33.5z" />
<glyph unicode=";" horiz-adv-x="438" d="M39 -293l168 465h53l-180 -465h-41zM186 1020q0 20 13.5 32.5t33.5 12.5q21 0 34.5 -12.5t13.5 -32.5t-14 -33.5t-34 -13.5t-33.5 13.5t-13.5 33.5z" />
<glyph unicode="&#x3c;" d="M156 700v41l868 424v-51l-827 -393l827 -393v-52z" />
<glyph unicode="=" d="M180 481v41h848v-41h-848zM180 922v41h848v-41h-848z" />
<glyph unicode="&#x3e;" d="M184 276v52l828 393l-828 393v51l869 -424v-41z" />
<glyph unicode="?" horiz-adv-x="899" d="M41 1280v51q176 123 369 123q179 0 293 -98.5t114 -259.5q0 -66 -21.5 -123.5t-55.5 -99.5t-75 -80t-82.5 -73t-75.5 -71.5t-55.5 -82.5t-21.5 -99v-29h-41v29q0 58 21.5 108.5t55.5 88.5t75.5 74.5t82.5 73t75 76.5t55.5 93.5t21.5 114.5q0 143 -103 230t-263 87 q-183 0 -369 -133zM360 25q0 20 14 33.5t34 13.5t33.5 -13.5t13.5 -33.5t-13.5 -32.5t-33.5 -12.5q-21 0 -34.5 12.5t-13.5 32.5z" />
<glyph unicode="@" horiz-adv-x="1996" d="M143 553q0 184 67.5 345.5t183.5 276t278.5 180.5t345.5 66q133 0 256.5 -34t228.5 -102.5t183 -163t122.5 -223.5t44.5 -277q0 -137 -35.5 -246.5t-108.5 -175.5t-171 -66t-164 61t-71 154q-44 -100 -126.5 -157.5t-197.5 -57.5q-172 0 -280.5 120t-108.5 296 q0 177 107.5 297.5t275.5 120.5q107 0 193 -53t130 -150v184h41v-586q0 -84 58 -140t145 -56q86 0 149 63t93 163.5t30 225.5q0 143 -42.5 266.5t-117.5 213.5t-175.5 154t-217 96t-241.5 32q-174 0 -328 -63t-265 -172t-176 -263.5t-65 -330.5q0 -235 111.5 -424.5 t304 -295t426.5 -105.5q198 0 378.5 75t307.5 197v-64q-143 -113 -320 -181t-368 -68q-243 0 -444 110.5t-319 310t-118 447.5zM631 549q0 -160 96.5 -267.5t253.5 -107.5q226 0 315 244v268q-29 95 -112 167.5t-209 72.5q-152 0 -248 -108.5t-96 -268.5z" />
<glyph unicode="A" horiz-adv-x="1359" d="M49 0l596 1434h70l596 -1434h-41l-185 436h-811l-184 -436h-41zM291 477h778l-389 924z" />
<glyph unicode="B" horiz-adv-x="1345" d="M190 0v1434h623q177 0 285 -97t108 -254q0 -138 -88.5 -225t-257.5 -104q182 -21 282.5 -129t100.5 -254q0 -160 -117.5 -265.5t-304.5 -105.5h-631zM231 41h590q168 0 274.5 95t106.5 235q0 74 -32 139.5t-91 115.5t-151 79.5t-205 29.5h-492v-694zM231 776h494 q214 0 327 84t113 227q0 136 -97 221t-255 85h-582v-617z" />
<glyph unicode="C" horiz-adv-x="1421" d="M102 717q0 157 57.5 293t160.5 234t252 154t325 56q101 0 190.5 -18.5t219.5 -73.5v-43q-131 57 -219.5 75.5t-186.5 18.5q-170 0 -312.5 -53t-240 -146t-151.5 -221t-54 -276t54 -276.5t151.5 -221.5t240 -146t312.5 -53q97 0 186 19t220 76v-43q-130 -55 -219.5 -73.5 t-190.5 -18.5q-176 0 -325 56t-252 154t-160.5 234t-57.5 293z" />
<glyph unicode="D" horiz-adv-x="1517" d="M190 0v1434h443q214 0 393.5 -93.5t284 -258.5t104.5 -365t-104.5 -365t-284 -258.5t-393.5 -93.5h-443zM231 41h402q204 0 373.5 88t268.5 243.5t99 344.5t-99 344.5t-268.5 243.5t-373.5 88h-402v-1352z" />
<glyph unicode="E" horiz-adv-x="1290" d="M190 0v1434h936v-41h-895v-625h877v-41h-877v-686h895v-41h-936z" />
<glyph unicode="F" horiz-adv-x="1228" d="M190 0v1434h936v-41h-895v-625h854v-41h-854v-727h-41z" />
<glyph unicode="G" horiz-adv-x="1486" d="M102 717q0 157 57.5 293t160.5 234t252 154t325 56q95 0 177.5 -16t197.5 -62v-43q-115 48 -197.5 64t-173.5 16q-170 0 -312.5 -53t-240 -146t-151.5 -221t-54 -276t54 -276.5t151.5 -221.5t240 -146t312.5 -53q96 0 184 18.5t218 74.5v573h-461v41h501v-641 q-155 -65 -249.5 -85.5t-196.5 -20.5q-176 0 -325 56t-252 154t-160.5 234t-57.5 293z" />
<glyph unicode="H" horiz-adv-x="1466" d="M190 0v1434h41v-666h1004v666h41v-1434h-41v727h-1004v-727h-41z" />
<glyph unicode="I" horiz-adv-x="442" d="M201 0v1434h41v-1434h-41z" />
<glyph unicode="J" horiz-adv-x="907" d="M74 43v53q133 -76 248 -76q167 0 273.5 112.5t106.5 281.5v1020h41v-1020q0 -187 -118 -310.5t-303 -123.5q-132 0 -248 63z" />
<glyph unicode="K" horiz-adv-x="1394" d="M190 0v1434h41v-1082l986 1082h55l-580 -633l641 -801h-51l-616 772l-435 -473v-299h-41z" />
<glyph unicode="L" horiz-adv-x="1187" d="M190 0v1434h41v-1393h854v-41h-895z" />
<glyph unicode="M" horiz-adv-x="1781" d="M190 0v1434h66l635 -1393l635 1393h65v-1434h-41v1389l-632 -1389h-54l-633 1389v-1389h-41z" />
<glyph unicode="N" horiz-adv-x="1505" d="M190 0v1434h58l1026 -1397v1397h41v-1434h-62l-1022 1386v-1386h-41z" />
<glyph unicode="O" horiz-adv-x="1605" d="M102 715q0 156 54 293t146.5 235t223 154.5t277.5 56.5t277 -56.5t223 -154.5t146.5 -235t53.5 -293q0 -155 -53.5 -291.5t-146.5 -234t-223 -153.5t-277 -56q-197 0 -357.5 95.5t-252 264t-91.5 375.5zM143 715q0 -196 86 -355t237 -249.5t337 -90.5t337 90.5 t236.5 249.5t85.5 355q0 147 -50.5 277t-137.5 222t-209.5 145.5t-261.5 53.5q-186 0 -337 -90.5t-237 -250.5t-86 -357z" />
<glyph unicode="P" horiz-adv-x="1298" d="M190 0v1434h611q175 0 299.5 -111t124.5 -274q0 -162 -124.5 -272.5t-299.5 -110.5h-570v-666h-41zM231 707h570q157 0 270 98.5t113 243.5q0 146 -113 245t-270 99h-570v-686z" />
<glyph unicode="Q" horiz-adv-x="1646" d="M102 715q0 156 54 293t146.5 235t223 154.5t277.5 56.5t277 -56.5t223 -154.5t146.5 -235t53.5 -293q0 -295 -176 -500l193 -215h-60l-164 182q-95 -97 -221 -149.5t-272 -52.5q-197 0 -357.5 95.5t-252 264t-91.5 375.5zM143 715q0 -196 86 -355t237 -249.5t337 -90.5 q277 0 467 193l-314 350h60l282 -317q164 198 164 469q0 147 -50.5 277t-137.5 222t-209.5 145.5t-261.5 53.5q-186 0 -337 -90.5t-237 -250.5t-86 -357z" />
<glyph unicode="R" horiz-adv-x="1370" d="M190 0v1434h611q175 0 299.5 -111t124.5 -274q0 -162 -124.5 -272.5t-299.5 -110.5h-62l516 -666h-55l-516 666h-453v-666h-41zM231 707h570q157 0 270 98.5t113 243.5q0 146 -113 245t-270 99h-570v-686z" />
<glyph unicode="S" horiz-adv-x="1161" d="M98 139v56q143 -97 260.5 -136t243.5 -39q181 0 294.5 95t113.5 243q0 48 -13 89t-33.5 71.5t-55 57t-66.5 44.5t-80.5 36.5t-86 30t-91.5 27.5q-49 14 -73.5 21.5t-69.5 23t-69 26.5t-60.5 30t-56.5 37t-44 43.5t-36.5 53t-21 63t-8.5 75.5q0 160 127.5 263.5 t331.5 103.5q205 0 414 -82v-51q-207 92 -410 92q-187 0 -304.5 -91t-117.5 -232q0 -72 29.5 -126.5t79.5 -89t115 -61t136.5 -47t143.5 -42t137 -51.5t115 -69t79.5 -101t29.5 -143q0 -165 -124 -272.5t-321 -107.5q-270 0 -508 159z" />
<glyph unicode="T" horiz-adv-x="1255" d="M82 1393v41h1092v-41h-525v-1393h-41v1393h-526z" />
<glyph unicode="U" horiz-adv-x="1413" d="M164 537v897h41v-897q0 -235 140.5 -376t361.5 -141t361 141t140 376v897h41v-897q0 -254 -151 -405.5t-391 -151.5t-391.5 151.5t-151.5 405.5z" />
<glyph unicode="V" horiz-adv-x="1277" d="M49 1434h41l549 -1405l549 1405h41l-555 -1434h-70z" />
<glyph unicode="W" horiz-adv-x="2068" d="M49 1434h45l455 -1391l450 1391h70l451 -1391l454 1391h45l-471 -1434h-57l-457 1407l-456 -1407h-58z" />
<glyph unicode="X" horiz-adv-x="1265" d="M49 0l559 719l-559 715h49l535 -680l534 680h50l-560 -715l560 -719h-50l-534 684l-535 -684h-49z" />
<glyph unicode="Y" horiz-adv-x="1290" d="M49 1434h55l543 -824l539 824h55l-573 -869v-565h-41v565z" />
<glyph unicode="Z" horiz-adv-x="1226" d="M74 0v10l993 1383h-973v41h1051v-11l-995 -1382h974v-41h-1050z" />
<glyph unicode="[" horiz-adv-x="638" d="M164 -143v1720h414v-41h-373v-1638h373v-41h-414z" />
<glyph unicode="\" horiz-adv-x="796" d="M86 1434h49l576 -1434h-49z" />
<glyph unicode="]" horiz-adv-x="638" d="M61 -102h373v1638h-373v41h414v-1720h-414v41z" />
<glyph unicode="^" horiz-adv-x="966" d="M184 969l279 465h37l282 -465h-39l-262 438l-262 -438h-35z" />
<glyph unicode="_" horiz-adv-x="1032" d="M20 -287h992v-41h-992v41z" />
<glyph unicode="`" horiz-adv-x="1228" d="M403 1556h56l166 -335h-45z" />
<glyph unicode="a" horiz-adv-x="1042" d="M94 317q0 147 105 244.5t266 97.5q108 0 207.5 -53t165.5 -153v213q0 169 -88.5 263.5t-253.5 94.5q-164 0 -320 -84v47q148 78 326 78q183 0 280 -104t97 -295v-666h-41v188q-66 -102 -164.5 -155t-208.5 -53q-161 0 -266 95.5t-105 241.5zM135 317q0 -127 93.5 -210.5 t236.5 -83.5q46 0 91.5 10.5t95.5 34.5t98.5 69.5t87.5 108.5v149q-41 67 -93 113.5t-103.5 69t-93.5 31.5t-83 9q-142 0 -236 -86t-94 -215z" />
<glyph unicode="b" horiz-adv-x="1280" d="M176 0v1434h41v-643q62 118 181.5 196t273.5 78q143 0 259 -71t181.5 -195.5t65.5 -278.5q0 -232 -144 -386t-362 -154q-156 0 -275 79t-180 195v-254h-41zM217 324q22 -51 61 -101t94.5 -96.5t133.5 -75t164 -28.5q201 0 334 142t133 357t-134 358.5t-335 143.5 q-84 0 -160.5 -27.5t-132 -73t-95 -96t-63.5 -104.5v-399z" />
<glyph unicode="c" horiz-adv-x="1052" d="M102 524q0 234 159.5 387.5t414.5 153.5q139 0 274 -37v-47q-157 43 -282 43q-232 0 -378.5 -141.5t-146.5 -358.5q0 -218 148 -359.5t379 -141.5q123 0 280 43v-43q-147 -43 -274 -43q-255 0 -414.5 154t-159.5 390z" />
<glyph unicode="d" horiz-adv-x="1280" d="M102 520q0 235 147.5 390t377.5 155q146 0 261 -78.5t175 -195.5v643h41v-1434h-41v254q-60 -116 -175.5 -195t-260.5 -79q-230 0 -377.5 153.5t-147.5 386.5zM143 520q0 -215 136.5 -356t351.5 -141q64 0 125 19t108 49.5t87.5 71t67.5 80.5t44 81v399 q-17 41 -44.5 81.5t-67.5 80.5t-87 70.5t-108 49.5t-125 19q-215 0 -351.5 -143t-136.5 -361z" />
<glyph unicode="e" horiz-adv-x="1155" d="M102 537q0 227 143 377.5t357 150.5q207 0 329 -137.5t122 -372.5v-12h-910v-6q1 -242 143.5 -378t389.5 -136q141 0 319 73v-51q-163 -65 -319 -65q-265 0 -419.5 149t-154.5 408zM145 584h867q-9 204 -119 322t-291 118q-186 0 -314.5 -124.5t-142.5 -315.5z" />
<glyph unicode="f" horiz-adv-x="612" d="M70 1004v40h172v138q0 125 71 198.5t187 73.5q46 0 125 -14v-47q-68 20 -125 20q-97 0 -157 -62.5t-60 -168.5v-138h274v-40h-274v-1004h-41v1004h-172z" />
<glyph unicode="g" horiz-adv-x="1239" d="M102 553q0 222 138.5 367t363.5 145q281 0 418 -281v260h41v-956q0 -199 -147 -328t-371 -129q-157 0 -389 88v50q209 -95 381 -95q213 0 349 115.5t136 298.5v211q-57 -116 -159 -186t-251 -70q-232 0 -371 143.5t-139 366.5zM143 553q0 -205 127.5 -337t339.5 -132 q84 0 154.5 26.5t119.5 72t81.5 94t56.5 106.5v324q-138 317 -418 317q-206 0 -333.5 -133.5t-127.5 -337.5z" />
<glyph unicode="h" horiz-adv-x="1142" d="M176 0v1434h41v-605q147 236 393 236q160 0 264.5 -99.5t104.5 -254.5v-711h-41v707q0 138 -93.5 227.5t-236.5 89.5q-70 0 -132.5 -22t-110 -61t-83.5 -84.5t-65 -100.5v-756h-41z" />
<glyph unicode="i" horiz-adv-x="405" d="M156 1386q0 20 13.5 33t33.5 13t33.5 -13t13.5 -33t-13.5 -33.5t-33.5 -13.5t-33.5 13.5t-13.5 33.5zM180 0v1044h41v-1044h-41z" />
<glyph unicode="j" horiz-adv-x="413" d="M-154 -307q71 -21 125 -21q96 0 156.5 63t60.5 169v1140h41v-1140q0 -125 -71 -199t-187 -74q-41 0 -125 15v47zM164 1386q0 20 13.5 33t33.5 13t33.5 -13t13.5 -33t-13.5 -33.5t-33.5 -13.5t-33.5 13.5t-13.5 33.5z" />
<glyph unicode="k" horiz-adv-x="1038" d="M176 0v1434h41v-1043l641 653h53l-409 -417l483 -627h-51l-461 596l-256 -260v-336h-41z" />
<glyph unicode="l" horiz-adv-x="393" d="M176 0v1434h41v-1434h-41z" />
<glyph unicode="m" horiz-adv-x="1802" d="M176 0v1044h41v-215q143 236 387 236q121 0 206 -66.5t110 -183.5q146 250 395 250q142 0 232.5 -91t90.5 -245v-729h-41v725q0 135 -79.5 217t-206.5 82q-134 0 -228.5 -75.5t-154.5 -194.5v-25v-729h-41v725q0 135 -80 217t-207 82q-132 0 -227 -75t-156 -193v-756h-41 z" />
<glyph unicode="n" horiz-adv-x="1142" d="M176 0v1044h41v-215q147 236 393 236q160 0 264.5 -99.5t104.5 -254.5v-711h-41v707q0 138 -93.5 227.5t-236.5 89.5q-70 0 -132.5 -22t-110 -61t-83.5 -84.5t-65 -100.5v-756h-41z" />
<glyph unicode="o" horiz-adv-x="1257" d="M102 522q0 153 69 277.5t189.5 195t268.5 70.5t268.5 -70.5t189 -195t68.5 -277.5q0 -115 -40.5 -215.5t-110 -172t-167 -113t-208.5 -41.5q-148 0 -268.5 70t-189.5 194.5t-69 277.5zM143 522q0 -215 139.5 -358.5t346.5 -143.5t346 143.5t139 358.5q0 216 -139 360 t-346 144t-346.5 -144t-139.5 -360z" />
<glyph unicode="p" horiz-adv-x="1280" d="M176 -348v1392h41v-253q63 116 186 195t273 79q140 0 255 -71t181 -196t66 -278q0 -231 -144.5 -385.5t-357.5 -154.5q-152 0 -274.5 80.5t-184.5 195.5v-604h-41zM217 324q22 -51 62.5 -101.5t97.5 -96.5t135 -74.5t162 -28.5q196 0 329.5 142.5t133.5 356.5t-134.5 358 t-330.5 144q-82 0 -159 -28t-134 -73t-98.5 -96.5t-63.5 -103.5v-399z" />
<glyph unicode="q" horiz-adv-x="1280" d="M102 520q0 153 66 278t181 196t255 71q150 0 273 -79t186 -195v253h41v-1392h-41v604q-62 -115 -184.5 -195.5t-274.5 -80.5q-213 0 -357.5 154.5t-144.5 385.5zM143 522q0 -214 133.5 -356.5t329.5 -142.5q84 0 162 28.5t135 74.5t97.5 96.5t62.5 101.5v399 q-22 52 -63.5 103.5t-98.5 96.5t-134 73t-159 28q-196 0 -330.5 -144t-134.5 -358z" />
<glyph unicode="r" horiz-adv-x="684" d="M176 0v1044h41v-243q26 53 60 96.5t83.5 83t119 62t151.5 22.5v-41q-73 0 -134 -18t-100.5 -43t-76 -68.5t-57 -77t-46.5 -86.5v-731h-41z" />
<glyph unicode="s" horiz-adv-x="937" d="M102 88v55q109 -61 195.5 -92t183.5 -31q141 0 223 65t82 177q0 66 -36 112.5t-93.5 73t-126.5 47.5t-138.5 43.5t-127 51.5t-93.5 81t-36 124q0 125 95 197.5t259 72.5q143 0 297 -61l-2 -48q-159 68 -295 68q-145 0 -229 -61.5t-84 -167.5q0 -66 36 -112.5t93.5 -72.5 t126.5 -46.5t138.5 -42t127 -50.5t93.5 -81.5t36 -125.5q0 -132 -93.5 -208t-254.5 -76q-158 0 -377 108z" />
<glyph unicode="t" horiz-adv-x="698" d="M70 1004v40h172v279h41v-279h354v-40h-354v-750q0 -109 50.5 -171.5t135.5 -62.5q47 0 115 27v-47q-44 -20 -115 -20q-103 0 -165 73.5t-62 200.5v750h-172z" />
<glyph unicode="u" horiz-adv-x="1142" d="M164 334v710h41v-706q0 -138 93.5 -228t236.5 -90q135 0 232 75.5t159 193.5v755h41v-1044h-41v215q-64 -103 -161.5 -169t-232.5 -66q-160 0 -264 99.5t-104 254.5z" />
<glyph unicode="v" horiz-adv-x="1024" d="M53 1044h49l410 -1005l410 1005h49l-430 -1044h-58z" />
<glyph unicode="w" horiz-adv-x="1634" d="M53 1044h49l342 -1009l347 1009h53l346 -1009l342 1009h49l-364 -1044h-54l-346 997l-346 -997h-53z" />
<glyph unicode="x" horiz-adv-x="925" d="M53 0l381 526l-381 518h53l357 -489l356 489h53l-380 -518l380 -526h-53l-356 498l-357 -498h-53z" />
<glyph unicode="y" horiz-adv-x="1071" d="M53 1044h49l445 -962l422 962h49l-617 -1392h-49l170 377z" />
<glyph unicode="z" horiz-adv-x="954" d="M94 1006v38h758v-8l-680 -995h688v-41h-758v10l682 996h-690z" />
<glyph unicode="{" horiz-adv-x="737" d="M41 696v41h78q67 0 112 46.5t45 115.5v475q0 86 57 144.5t142 58.5h201v-41h-201q-67 0 -112.5 -46.5t-45.5 -115.5v-475q0 -61 -29 -109t-79 -73q50 -25 79 -73t29 -109v-476q0 -69 45 -115t113 -46h201v-41h-201q-85 0 -142 58t-57 144v476q0 69 -45 115t-112 46h-78z " />
<glyph unicode="|" horiz-adv-x="581" d="M266 -61v1556h49v-1556h-49z" />
<glyph unicode="}" horiz-adv-x="737" d="M61 -102h201q68 0 113 46t45 115v476q0 61 29 109t79 73q-50 25 -79 73t-29 109v475q0 69 -45.5 115.5t-112.5 46.5h-201v41h201q85 0 142 -58.5t57 -144.5v-475q0 -69 45 -115.5t112 -46.5h78v-41h-78q-67 0 -112 -46t-45 -115v-476q0 -86 -57 -144t-142 -58h-201v41z " />
<glyph unicode="~" horiz-adv-x="1028" d="M164 635q0 70 50.5 113t127.5 43q49 0 97.5 -18.5t82 -41t79.5 -41t91 -18.5q56 0 91.5 31.5t35.5 84.5h45q0 -72 -49 -114.5t-129 -42.5q-49 0 -97.5 18.5t-81.5 41t-79 41t-92 18.5q-55 0 -91 -31t-36 -84h-45z" />
<glyph unicode="&#xa1;" horiz-adv-x="503" d="M205 1061q0 20 13.5 32.5t33.5 12.5t33.5 -12.5t13.5 -32.5t-13.5 -33.5t-33.5 -13.5t-33.5 13.5t-13.5 33.5zM231 -348v995h41v-995h-41z" />
<glyph unicode="&#xa2;" horiz-adv-x="1093" d="M102 524q0 203 123 348.5t328 182.5v235h41v-229q54 4 82 4q139 0 274 -37v-47q-157 43 -282 43q-232 0 -378.5 -141.5t-146.5 -358.5q0 -218 148 -359.5t379 -141.5q123 0 280 43v-43q-147 -43 -274 -43q-28 0 -82 4v-209h-41v215q-205 37 -328 183t-123 351z" />
<glyph unicode="&#xa3;" horiz-adv-x="1259" d="M82 0v41h197l-3 625h-194v41h194l-2 348q0 98 35 175t96.5 125.5t141 73.5t170.5 25q163 0 366 -82v-51q-200 92 -362 92q-112 0 -202 -37.5t-147 -120.5t-57 -200l4 -348h738v-41h-738l9 -625h850v-41h-1096z" />
<glyph unicode="&#xa4;" d="M145 223l158 162q-102 117 -102 281q0 162 100 276l-156 160l29 28l156 -159q113 104 274 104q162 0 275 -104l155 159l29 -28l-158 -160q101 -115 101 -276q0 -166 -103 -281l160 -162l-29 -28l-157 161q-117 -102 -273 -102q-155 0 -272 102l-158 -161zM242 666 q0 -158 103.5 -264.5t258.5 -106.5t258 106t103 265q0 158 -103 263t-258 105t-258.5 -105t-103.5 -263z" />
<glyph unicode="&#xa5;" horiz-adv-x="1331" d="M49 1434h55l543 -824l539 824h55l-551 -836h453v-41h-475v-266h475v-41h-475v-250h-41v250h-437v41h437v266h-437v41h414z" />
<glyph unicode="&#xa6;" horiz-adv-x="581" d="M266 -61v649h49v-649h-49zM266 846v649h49v-649h-49z" />
<glyph unicode="&#xa7;" horiz-adv-x="1099" d="M41 760q0 68 22.5 130.5t74.5 115.5t126 73q-26 54 -26 109q0 113 85 189.5t224 76.5q129 0 284 -47v-47q-152 53 -284 53q-121 0 -194.5 -66t-73.5 -163q0 -52 26.5 -97t72 -79.5t104 -67t123 -63t129 -62t123 -69.5t104 -81t72 -100.5t26.5 -124.5q0 -107 -60 -189 t-170 -112q33 -61 33 -129q0 -121 -90.5 -194.5t-247.5 -73.5q-131 0 -286 47v47q152 -53 284 -53q139 0 219 61.5t80 165.5q0 73 -43 133t-112 102t-152 80.5t-166 79.5t-152 87.5t-112 115t-43 152.5zM82 762q0 -77 42 -140.5t106.5 -105t148.5 -84.5t162 -77t152.5 -83 t115.5 -102q107 30 158 104t51 164q0 67 -31.5 124.5t-85 100.5t-119.5 81t-139.5 73.5t-139.5 69t-125.5 76t-92.5 88.5q-96 -28 -149.5 -110.5t-53.5 -178.5z" />
<glyph unicode="&#xa8;" horiz-adv-x="1269" d="M362 1386q0 20 14 33t34 13t33.5 -13t13.5 -33t-13.5 -33.5t-33.5 -13.5t-34 13.5t-14 33.5zM813 1386q0 20 13.5 33t33.5 13t33.5 -13t13.5 -33t-13.5 -33.5t-33.5 -13.5t-33.5 13.5t-13.5 33.5z" />
<glyph unicode="&#xa9;" horiz-adv-x="1591" d="M61 719q0 155 56.5 291.5t153.5 234t233.5 153.5t290.5 56q155 0 291.5 -56t234 -153.5t153.5 -234t56 -291.5q0 -156 -56 -293t-153.5 -235t-234 -154.5t-291.5 -56.5q-154 0 -290.5 56.5t-233.5 154.5t-153.5 235t-56.5 293zM102 719q0 -147 53 -276.5t145 -222 t220.5 -146.5t274.5 -54q195 0 354 91.5t249.5 251.5t90.5 356q0 146 -53.5 275t-145 220.5t-220.5 145t-275 53.5q-195 0 -353.5 -90.5t-249 -249.5t-90.5 -354zM401 709q0 177 127 294t318 117q94 0 180 -26v-43q-84 30 -176 30q-174 0 -290 -106t-116 -266t116 -267.5 t288 -107.5q88 0 178 31v-41q-86 -29 -176 -29q-192 0 -320.5 118.5t-128.5 295.5z" />
<glyph unicode="&#xaa;" horiz-adv-x="839" d="M76 856q0 117 84.5 195.5t212.5 78.5q86 0 164.5 -41t130.5 -120v166q0 132 -70 206t-201 74q-126 0 -254 -67v45q117 61 260 61q148 0 227 -83t79 -236v-533h-41v148q-53 -80 -130.5 -122t-164.5 -42q-129 0 -213 76.5t-84 193.5zM117 856q0 -100 73 -165.5t185 -65.5 q78 0 156 40t137 134v119q-62 98 -140.5 136t-152.5 38q-112 0 -185 -67t-73 -169z" />
<glyph unicode="&#xab;" horiz-adv-x="724" d="M53 537l312 376h41l-312 -376l312 -377h-41zM319 537l312 376h41l-312 -376l312 -377h-41z" />
<glyph unicode="&#xad;" horiz-adv-x="880" d="M143 541v41h594v-41h-594z" />
<glyph unicode="&#xae;" horiz-adv-x="905" d="M61 1063q0 165 113.5 278t278.5 113t278 -113t113 -278q0 -167 -113 -280t-278 -113t-278.5 113t-113.5 280zM98 1063q0 -150 104 -253t251 -103t250.5 103t103.5 253q0 147 -103.5 250.5t-250.5 103.5t-251 -103.5t-104 -250.5zM324 872v394h153q56 0 93.5 -34t37.5 -81 q0 -42 -29.5 -75t-76.5 -40l125 -164h-62l-110 162h-88v-162h-43zM367 1075h110q38 0 62 21.5t24 54.5q0 31 -24 52.5t-62 21.5h-110v-150z" />
<glyph unicode="&#xaf;" horiz-adv-x="1228" d="M389 1370v41h451v-41h-451z" />
<glyph unicode="&#xb0;" horiz-adv-x="798" d="M82 1143q0 133 91 222t226 89t226.5 -89t91.5 -222q0 -135 -91.5 -225.5t-226.5 -90.5t-226 90.5t-91 225.5zM119 1143q0 -120 80 -199.5t200 -79.5t200.5 79.5t80.5 199.5q0 117 -80.5 195.5t-200.5 78.5t-200 -78.5t-80 -195.5z" />
<glyph unicode="&#xb1;" d="M135 0v37h938v-37h-938zM135 764v37h449v436h41v-436h448v-37h-448v-436h-41v436h-449z" />
<glyph unicode="&#xb2;" horiz-adv-x="694" d="M66 -199l315 318l63 63t48.5 54t41 57.5t22 55t9.5 65.5q0 91 -58 153t-171 62q-123 0 -260 -107v53q129 93 262 93q127 0 198.5 -72t71.5 -182q0 -82 -42.5 -145.5t-157.5 -176.5l-258 -258h481v-39h-565v6z" />
<glyph unicode="&#xb3;" horiz-adv-x="712" d="M76 -109q139 -69 266 -69q102 0 170 55t68 141q0 87 -68 145t-172 58h-84v6l301 389h-471v39h539v-6l-299 -391h14q124 0 202.5 -68.5t78.5 -171.5q0 -102 -79 -168.5t-200 -66.5q-123 0 -266 61v47z" />
<glyph unicode="&#xb4;" horiz-adv-x="1228" d="M604 1221l166 335h55l-176 -335h-45z" />
<glyph unicode="&#xb6;" horiz-adv-x="1212" d="M61 1077q0 155 118 256t300 101h195v-1680h-41v953h-164q-177 0 -292.5 104.5t-115.5 265.5zM981 -246v1680h41v-1680h-41z" />
<glyph unicode="&#xb7;" horiz-adv-x="417" d="M162 584q0 20 13.5 33.5t33.5 13.5t33.5 -13.5t13.5 -33.5t-13.5 -32.5t-33.5 -12.5t-33.5 12.5t-13.5 32.5z" />
<glyph unicode="&#xb8;" horiz-adv-x="1228" d="M383 -365q105 -55 195 -55q68 0 115.5 38.5t47.5 96.5t-48.5 98t-117.5 40h-71v4l78 161h47l-58 -124h7q88 0 146 -51.5t58 -127.5q0 -75 -59 -125.5t-148 -50.5q-90 0 -192 47v49z" />
<glyph unicode="&#xb9;" horiz-adv-x="446" d="M47 514v43l291 111h6v-873h-41v826z" />
<glyph unicode="&#xba;" horiz-adv-x="1005" d="M82 1020q0 187 120 310.5t302 123.5q180 0 300 -123.5t120 -310.5t-120 -310.5t-300 -123.5q-182 0 -302 123.5t-120 310.5zM123 1020q0 -169 108.5 -282t272.5 -113q163 0 271 113t108 282q0 170 -108 283.5t-271 113.5q-164 0 -272.5 -113.5t-108.5 -283.5z" />
<glyph unicode="&#xbb;" horiz-adv-x="724" d="M53 160l312 377l-312 376h41l312 -376l-312 -377h-41zM319 160l312 377l-312 376h41l312 -376l-312 -377h-41z" />
<glyph unicode="&#xbc;" horiz-adv-x="1570" d="M47 1300v43l291 111h6v-872h-41v825zM221 0l885 1434h49l-883 -1434h-51zM868 236v6l254 618h47l-243 -588h413v330h39v-330h148v-36h-148v-236h-39v236h-471z" />
<glyph unicode="&#xbd;" horiz-adv-x="1603" d="M47 1300v43l291 111h6v-872h-41v825zM221 0l885 1434h49l-883 -1434h-51zM975 0v6l315 318q46 45 63.5 63t48 53t42 57.5t21.5 54.5t10 66q0 91 -58.5 153.5t-171.5 62.5q-123 0 -260 -107v53q128 92 262 92q128 0 199.5 -72t71.5 -182q0 -81 -42.5 -144t-158.5 -177 l-258 -258h481v-39h-565z" />
<glyph unicode="&#xbe;" horiz-adv-x="1755" d="M76 623v47q141 -70 266 -70q102 0 170 55.5t68 141.5q0 87 -68 144.5t-172 57.5h-84v7l301 389h-471v39h539v-7l-299 -391h14q124 0 202.5 -68t78.5 -171q0 -102 -79 -169t-200 -67q-120 0 -266 62zM406 0l884 1434h49l-882 -1434h-51zM1053 236v6l254 618h47l-244 -588 h414v330h39v-330h147v-36h-147v-236h-39v236h-471z" />
<glyph unicode="&#xbf;" horiz-adv-x="899" d="M82 -10q0 66 21.5 123.5t55.5 99.5t75.5 79.5t82.5 73t75 71.5t55.5 82t21.5 99v29h41v-29q0 -58 -21.5 -108.5t-55.5 -88.5t-75.5 -74t-82.5 -73t-75 -76.5t-55.5 -93t-21.5 -114.5q0 -143 103 -230.5t263 -87.5q183 0 369 133v-51q-176 -123 -369 -123q-179 0 -293 99 t-114 260zM444 1061q0 20 13.5 32.5t34.5 12.5q20 0 33.5 -12.5t13.5 -32.5t-13.5 -33.5t-33.5 -13.5t-34 13.5t-14 33.5z" />
<glyph unicode="&#xc0;" horiz-adv-x="1359" d="M49 0l596 1434h70l596 -1434h-41l-185 436h-811l-184 -436h-41zM291 477h778l-389 924zM449 1946h55l166 -336h-45z" />
<glyph unicode="&#xc1;" horiz-adv-x="1359" d="M49 0l596 1434h70l596 -1434h-41l-185 436h-811l-184 -436h-41zM291 477h778l-389 924zM711 1610l166 336h55l-176 -336h-45z" />
<glyph unicode="&#xc2;" horiz-adv-x="1359" d="M49 0l596 1434h70l596 -1434h-41l-185 436h-811l-184 -436h-41zM291 477h778l-389 924zM397 1610l252 336h62l252 -336h-56l-227 303l-227 -303h-56z" />
<glyph unicode="&#xc3;" horiz-adv-x="1359" d="M49 0l596 1434h70l596 -1434h-41l-185 436h-811l-184 -436h-41zM291 477h778l-389 924zM408 1659q0 70 39.5 113t95.5 43q34 0 68 -18.5t56.5 -41t53.5 -41t59 -18.5q42 0 71.5 33t29.5 83h43q0 -70 -43.5 -113.5t-102.5 -43.5q-35 0 -68.5 18.5t-56 41t-53 41 t-59.5 18.5q-39 0 -64.5 -31t-25.5 -84h-43z" />
<glyph unicode="&#xc4;" horiz-adv-x="1359" d="M49 0l596 1434h70l596 -1434h-41l-185 436h-811l-184 -436h-41zM291 477h778l-389 924zM408 1776q0 20 13.5 32.5t33.5 12.5t33.5 -12.5t13.5 -32.5t-13.5 -33.5t-33.5 -13.5t-33.5 13.5t-13.5 33.5zM858 1776q0 20 13.5 32.5t33.5 12.5t33.5 -12.5t13.5 -32.5 t-13.5 -33.5t-33.5 -13.5t-33.5 13.5t-13.5 33.5z" />
<glyph unicode="&#xc5;" horiz-adv-x="1359" d="M49 0l584 1405q-59 14 -96 60.5t-37 109.5q0 75 51 125.5t127 50.5q77 0 128.5 -50.5t51.5 -125.5q0 -61 -37 -107.5t-96 -60.5l586 -1407h-41l-185 436h-811l-184 -436h-41zM291 477h778l-389 924zM541 1575q0 -57 39.5 -97t97.5 -40q60 0 99.5 40t39.5 97 q0 59 -39.5 99t-99.5 40q-58 0 -97.5 -40t-39.5 -99z" />
<glyph unicode="&#xc6;" horiz-adv-x="2138" d="M49 0l1047 1434h878v-41h-813v-625h795v-41h-795v-686h813v-41h-854v436h-698l-320 -436h-53zM453 477h667v914z" />
<glyph unicode="&#xc7;" horiz-adv-x="1421" d="M102 717q0 157 57.5 293t160.5 234t252 154t325 56q101 0 190.5 -18.5t219.5 -73.5v-43q-131 57 -219.5 75.5t-186.5 18.5q-170 0 -312.5 -53t-240 -146t-151.5 -221t-54 -276t54 -276.5t151.5 -221.5t240 -146t312.5 -53q97 0 186 19t220 76v-43q-130 -55 -219.5 -73.5 t-190.5 -18.5h-6l-39 -86h6q88 0 146.5 -51.5t58.5 -127.5q0 -75 -59 -125.5t-148 -50.5q-90 0 -192 47v49q105 -55 194 -55q68 0 116 38.5t48 96.5t-48.5 98t-117.5 40h-72v4l60 125q-165 8 -304 67.5t-235 156t-149.5 228.5t-53.5 283z" />
<glyph unicode="&#xc8;" horiz-adv-x="1290" d="M190 0v1434h936v-41h-895v-625h877v-41h-877v-686h895v-41h-936zM455 1946h55l166 -336h-45z" />
<glyph unicode="&#xc9;" horiz-adv-x="1290" d="M190 0v1434h936v-41h-895v-625h877v-41h-877v-686h895v-41h-936zM655 1610l166 336h56l-177 -336h-45z" />
<glyph unicode="&#xca;" horiz-adv-x="1290" d="M190 0v1434h936v-41h-895v-625h877v-41h-877v-686h895v-41h-936zM383 1610l252 336h61l252 -336h-55l-227 303l-228 -303h-55z" />
<glyph unicode="&#xcb;" horiz-adv-x="1290" d="M190 0v1434h936v-41h-895v-625h877v-41h-877v-686h895v-41h-936zM393 1776q0 20 13.5 32.5t33.5 12.5t33.5 -12.5t13.5 -32.5t-13.5 -33.5t-33.5 -13.5t-33.5 13.5t-13.5 33.5zM844 1776q0 20 13.5 32.5t33.5 12.5t33.5 -12.5t13.5 -32.5t-13.5 -33.5t-33.5 -13.5 t-33.5 13.5t-13.5 33.5z" />
<glyph unicode="&#xcc;" horiz-adv-x="442" d="M10 1946h56l165 -336h-45zM201 0v1434h41v-1434h-41z" />
<glyph unicode="&#xcd;" horiz-adv-x="442" d="M201 0v1434h41v-1434h-41zM211 1610l166 336h55l-176 -336h-45z" />
<glyph unicode="&#xce;" horiz-adv-x="442" d="M-61 1610l251 336h62l252 -336h-55l-228 303l-227 -303h-55zM201 0v1434h41v-1434h-41z" />
<glyph unicode="&#xcf;" horiz-adv-x="442" d="M-51 1776q0 20 13.5 32.5t33.5 12.5t33.5 -12.5t13.5 -32.5t-13.5 -33.5t-33.5 -13.5t-33.5 13.5t-13.5 33.5zM201 0v1434h41v-1434h-41zM399 1776q0 20 13.5 32.5t33.5 12.5q21 0 34.5 -12.5t13.5 -32.5t-14 -33.5t-34 -13.5t-33.5 13.5t-13.5 33.5z" />
<glyph unicode="&#xd0;" horiz-adv-x="1517" d="M4 694v41h186v699h443q214 0 393.5 -93.5t284 -258.5t104.5 -365t-104.5 -365t-284 -258.5t-393.5 -93.5h-443v694h-186zM231 41h402q204 0 373.5 88t268.5 243.5t99 344.5t-99 344.5t-268.5 243.5t-373.5 88h-402v-658h347v-41h-347v-653z" />
<glyph unicode="&#xd1;" horiz-adv-x="1505" d="M190 0v1434h58l1026 -1397v1397h41v-1434h-62l-1022 1386v-1386h-41zM522 1659q0 70 39.5 113t95.5 43q34 0 68 -18.5t57 -41t53.5 -41t59.5 -18.5q42 0 71 33t29 83h43q0 -70 -43 -113.5t-102 -43.5q-35 0 -68.5 18.5t-56.5 41t-53.5 41t-59.5 18.5q-39 0 -64.5 -31 t-25.5 -84h-43z" />
<glyph unicode="&#xd2;" horiz-adv-x="1605" d="M102 715q0 156 54 293t146.5 235t223 154.5t277.5 56.5t277 -56.5t223 -154.5t146.5 -235t53.5 -293q0 -155 -53.5 -291.5t-146.5 -234t-223 -153.5t-277 -56q-197 0 -357.5 95.5t-252 264t-91.5 375.5zM143 715q0 -196 86 -355t237 -249.5t337 -90.5t337 90.5 t236.5 249.5t85.5 355q0 147 -50.5 277t-137.5 222t-209.5 145.5t-261.5 53.5q-186 0 -337 -90.5t-237 -250.5t-86 -357zM592 1946h55l166 -336h-45z" />
<glyph unicode="&#xd3;" horiz-adv-x="1605" d="M102 715q0 156 54 293t146.5 235t223 154.5t277.5 56.5t277 -56.5t223 -154.5t146.5 -235t53.5 -293q0 -155 -53.5 -291.5t-146.5 -234t-223 -153.5t-277 -56q-197 0 -357.5 95.5t-252 264t-91.5 375.5zM143 715q0 -196 86 -355t237 -249.5t337 -90.5t337 90.5 t236.5 249.5t85.5 355q0 147 -50.5 277t-137.5 222t-209.5 145.5t-261.5 53.5q-186 0 -337 -90.5t-237 -250.5t-86 -357zM793 1610l165 336h56l-176 -336h-45z" />
<glyph unicode="&#xd4;" horiz-adv-x="1605" d="M102 715q0 156 54 293t146.5 235t223 154.5t277.5 56.5t277 -56.5t223 -154.5t146.5 -235t53.5 -293q0 -155 -53.5 -291.5t-146.5 -234t-223 -153.5t-277 -56q-197 0 -357.5 95.5t-252 264t-91.5 375.5zM143 715q0 -196 86 -355t237 -249.5t337 -90.5t337 90.5 t236.5 249.5t85.5 355q0 147 -50.5 277t-137.5 222t-209.5 145.5t-261.5 53.5q-186 0 -337 -90.5t-237 -250.5t-86 -357zM520 1610l252 336h62l251 -336h-55l-227 303l-228 -303h-55z" />
<glyph unicode="&#xd5;" horiz-adv-x="1605" d="M102 715q0 156 54 293t146.5 235t223 154.5t277.5 56.5t277 -56.5t223 -154.5t146.5 -235t53.5 -293q0 -155 -53.5 -291.5t-146.5 -234t-223 -153.5t-277 -56q-197 0 -357.5 95.5t-252 264t-91.5 375.5zM143 715q0 -196 86 -355t237 -249.5t337 -90.5t337 90.5 t236.5 249.5t85.5 355q0 147 -50.5 277t-137.5 222t-209.5 145.5t-261.5 53.5q-186 0 -337 -90.5t-237 -250.5t-86 -357zM530 1659q0 70 40 113t96 43q34 0 68 -18.5t56.5 -41t53 -41t59.5 -18.5q42 0 71.5 33t29.5 83h43q0 -70 -43.5 -113.5t-102.5 -43.5q-35 0 -68.5 18.5 t-56 41t-53 41t-59.5 18.5q-39 0 -65 -31t-26 -84h-43z" />
<glyph unicode="&#xd6;" horiz-adv-x="1605" d="M102 715q0 156 54 293t146.5 235t223 154.5t277.5 56.5t277 -56.5t223 -154.5t146.5 -235t53.5 -293q0 -155 -53.5 -291.5t-146.5 -234t-223 -153.5t-277 -56q-197 0 -357.5 95.5t-252 264t-91.5 375.5zM143 715q0 -196 86 -355t237 -249.5t337 -90.5t337 90.5 t236.5 249.5t85.5 355q0 147 -50.5 277t-137.5 222t-209.5 145.5t-261.5 53.5q-186 0 -337 -90.5t-237 -250.5t-86 -357zM530 1776q0 20 13.5 32.5t34.5 12.5q20 0 33.5 -12.5t13.5 -32.5t-13.5 -33.5t-33.5 -13.5t-34 13.5t-14 33.5zM981 1776q0 20 13.5 32.5t33.5 12.5 t33.5 -12.5t13.5 -32.5t-13.5 -33.5t-33.5 -13.5t-33.5 13.5t-13.5 33.5z" />
<glyph unicode="&#xd7;" d="M182 330l391 391l-391 391l31 31l391 -391l391 391l31 -31l-391 -391l391 -391l-31 -31l-391 391l-391 -391z" />
<glyph unicode="&#xd8;" horiz-adv-x="1605" d="M102 715q0 156 54 293t146.5 235t223 154.5t277.5 56.5q136 0 256.5 -47.5t212.5 -134.5l149 162h54l-175 -189q97 -102 150 -237.5t53 -292.5q0 -155 -53.5 -291.5t-146.5 -234t-223 -153.5t-277 -56q-137 0 -259 48t-216 136l-146 -164h-55l172 195 q-94 100 -145.5 233.5t-51.5 286.5zM143 715q0 -144 48 -270t135 -220l477 539l442 479q-184 170 -442 170q-186 0 -337 -90.5t-237 -250.5t-86 -357zM354 195q188 -175 449 -175q186 0 337 90.5t236.5 249.5t85.5 355q0 148 -49 275.5t-139 223.5l-418 -452z" />
<glyph unicode="&#xd9;" horiz-adv-x="1413" d="M164 537v897h41v-897q0 -235 140.5 -376t361.5 -141t361 141t140 376v897h41v-897q0 -254 -151 -405.5t-391 -151.5t-391.5 151.5t-151.5 405.5zM496 1946h55l166 -336h-45z" />
<glyph unicode="&#xda;" horiz-adv-x="1413" d="M164 537v897h41v-897q0 -235 140.5 -376t361.5 -141t361 141t140 376v897h41v-897q0 -254 -151 -405.5t-391 -151.5t-391.5 151.5t-151.5 405.5zM696 1610l166 336h56l-177 -336h-45z" />
<glyph unicode="&#xdb;" horiz-adv-x="1413" d="M164 537v897h41v-897q0 -235 140.5 -376t361.5 -141t361 141t140 376v897h41v-897q0 -254 -151 -405.5t-391 -151.5t-391.5 151.5t-151.5 405.5zM424 1610l252 336h61l252 -336h-55l-227 303l-228 -303h-55z" />
<glyph unicode="&#xdc;" horiz-adv-x="1413" d="M164 537v897h41v-897q0 -235 140.5 -376t361.5 -141t361 141t140 376v897h41v-897q0 -254 -151 -405.5t-391 -151.5t-391.5 151.5t-151.5 405.5zM434 1776q0 20 13.5 32.5t33.5 12.5t33.5 -12.5t13.5 -32.5t-13.5 -33.5t-33.5 -13.5t-33.5 13.5t-13.5 33.5zM885 1776 q0 20 13.5 32.5t33.5 12.5t33.5 -12.5t13.5 -32.5t-13.5 -33.5t-33.5 -13.5t-33.5 13.5t-13.5 33.5z" />
<glyph unicode="&#xdd;" horiz-adv-x="1290" d="M49 1434h55l543 -824l539 824h55l-573 -869v-565h-41v565zM635 1610l166 336h55l-176 -336h-45z" />
<glyph unicode="&#xde;" horiz-adv-x="1298" d="M190 0v1434h41v-332h570q175 0 299.5 -111t124.5 -274q0 -162 -124.5 -272.5t-299.5 -110.5h-570v-334h-41zM231 375h570q157 0 270 98.5t113 243.5q0 146 -113 245t-270 99h-570v-686z" />
<glyph unicode="&#xdf;" horiz-adv-x="1179" d="M176 0v1038q0 177 117.5 296.5t294.5 119.5q158 0 263 -91t105 -228q0 -47 -14.5 -86t-37.5 -66t-51 -50.5t-56 -44t-51 -40.5t-37.5 -46.5t-14.5 -56.5q0 -39 20.5 -70t53.5 -52.5t72.5 -42.5t79.5 -46t73 -55.5t53.5 -78.5t20.5 -109q0 -139 -99.5 -225t-252.5 -86 q-115 0 -223 43v53q106 -56 225 -56q134 0 221.5 75t87.5 196q0 56 -20.5 99.5t-53.5 71t-72.5 51t-79.5 45t-73 45t-53.5 59.5t-20.5 81q0 41 19.5 75.5t48.5 57t63 49.5t63 52.5t48.5 66.5t19.5 91q0 120 -93.5 199t-233.5 79q-158 0 -264.5 -108.5t-106.5 -268.5v-1036 h-41z" />
<glyph unicode="&#xe0;" horiz-adv-x="1042" d="M94 317q0 147 105 244.5t266 97.5q108 0 207.5 -53t165.5 -153v213q0 169 -88.5 263.5t-253.5 94.5q-164 0 -320 -84v47q148 78 326 78q183 0 280 -104t97 -295v-666h-41v188q-66 -102 -164.5 -155t-208.5 -53q-161 0 -266 95.5t-105 241.5zM135 317q0 -127 93.5 -210.5 t236.5 -83.5q46 0 91.5 10.5t95.5 34.5t98.5 69.5t87.5 108.5v149q-41 67 -93 113.5t-103.5 69t-93.5 31.5t-83 9q-142 0 -236 -86t-94 -215zM305 1556h55l166 -335h-45z" />
<glyph unicode="&#xe1;" horiz-adv-x="1042" d="M94 317q0 147 105 244.5t266 97.5q108 0 207.5 -53t165.5 -153v213q0 169 -88.5 263.5t-253.5 94.5q-164 0 -320 -84v47q148 78 326 78q183 0 280 -104t97 -295v-666h-41v188q-66 -102 -164.5 -155t-208.5 -53q-161 0 -266 95.5t-105 241.5zM135 317q0 -127 93.5 -210.5 t236.5 -83.5q46 0 91.5 10.5t95.5 34.5t98.5 69.5t87.5 108.5v149q-41 67 -93 113.5t-103.5 69t-93.5 31.5t-83 9q-142 0 -236 -86t-94 -215zM506 1221l166 335h55l-176 -335h-45z" />
<glyph unicode="&#xe2;" horiz-adv-x="1042" d="M94 317q0 147 105 244.5t266 97.5q108 0 207.5 -53t165.5 -153v213q0 169 -88.5 263.5t-253.5 94.5q-164 0 -320 -84v47q148 78 326 78q183 0 280 -104t97 -295v-666h-41v188q-66 -102 -164.5 -155t-208.5 -53q-161 0 -266 95.5t-105 241.5zM135 317q0 -127 93.5 -210.5 t236.5 -83.5q46 0 91.5 10.5t95.5 34.5t98.5 69.5t87.5 108.5v149q-41 67 -93 113.5t-103.5 69t-93.5 31.5t-83 9q-142 0 -236 -86t-94 -215zM233 1221l252 335h62l252 -335h-56l-227 303l-227 -303h-56z" />
<glyph unicode="&#xe3;" horiz-adv-x="1042" d="M94 317q0 147 105 244.5t266 97.5q108 0 207.5 -53t165.5 -153v213q0 169 -88.5 263.5t-253.5 94.5q-164 0 -320 -84v47q148 78 326 78q183 0 280 -104t97 -295v-666h-41v188q-66 -102 -164.5 -155t-208.5 -53q-161 0 -266 95.5t-105 241.5zM135 317q0 -127 93.5 -210.5 t236.5 -83.5q46 0 91.5 10.5t95.5 34.5t98.5 69.5t87.5 108.5v149q-41 67 -93 113.5t-103.5 69t-93.5 31.5t-83 9q-142 0 -236 -86t-94 -215zM244 1270q0 70 39.5 112.5t95.5 42.5q34 0 68 -18.5t56.5 -40.5t53.5 -40.5t59 -18.5q42 0 71.5 33t29.5 83h43 q0 -70 -43.5 -113.5t-102.5 -43.5q-35 0 -68.5 18.5t-56 40.5t-53 40.5t-59.5 18.5q-39 0 -64.5 -30.5t-25.5 -83.5h-43z" />
<glyph unicode="&#xe4;" horiz-adv-x="1042" d="M94 317q0 147 105 244.5t266 97.5q108 0 207.5 -53t165.5 -153v213q0 169 -88.5 263.5t-253.5 94.5q-164 0 -320 -84v47q148 78 326 78q183 0 280 -104t97 -295v-666h-41v188q-66 -102 -164.5 -155t-208.5 -53q-161 0 -266 95.5t-105 241.5zM135 317q0 -127 93.5 -210.5 t236.5 -83.5q46 0 91.5 10.5t95.5 34.5t98.5 69.5t87.5 108.5v149q-41 67 -93 113.5t-103.5 69t-93.5 31.5t-83 9q-142 0 -236 -86t-94 -215zM244 1386q0 20 13.5 33t33.5 13t33.5 -13t13.5 -33t-13.5 -33.5t-33.5 -13.5t-33.5 13.5t-13.5 33.5zM694 1386q0 20 13.5 33 t33.5 13t33.5 -13t13.5 -33t-13.5 -33.5t-33.5 -13.5t-33.5 13.5t-13.5 33.5z" />
<glyph unicode="&#xe5;" horiz-adv-x="1042" d="M94 317q0 147 105 244.5t266 97.5q108 0 207.5 -53t165.5 -153v213q0 169 -88.5 263.5t-253.5 94.5q-164 0 -320 -84v47q148 78 326 78q183 0 280 -104t97 -295v-666h-41v188q-66 -102 -164.5 -155t-208.5 -53q-161 0 -266 95.5t-105 241.5zM135 317q0 -127 93.5 -210.5 t236.5 -83.5q46 0 91.5 10.5t95.5 34.5t98.5 69.5t87.5 108.5v149q-41 67 -93 113.5t-103.5 69t-93.5 31.5t-83 9q-142 0 -236 -86t-94 -215zM336 1411q0 75 51 125.5t127 50.5q77 0 128.5 -50.5t51.5 -125.5q0 -74 -52 -124t-128 -50t-127 50t-51 124zM377 1411 q0 -57 39.5 -97t97.5 -40q60 0 99.5 40t39.5 97q0 59 -39.5 99t-99.5 40q-58 0 -97.5 -40t-39.5 -99z" />
<glyph unicode="&#xe6;" horiz-adv-x="1849" d="M94 297q0 140 119 218.5t295 78.5h330v72q0 170 -88.5 264t-257.5 94q-160 0 -316 -84v47q148 78 322 78q164 0 259.5 -82t116.5 -233q45 141 167 228t270 87q202 0 319 -133t117 -367v-12h-864q3 -253 132.5 -391.5t358.5 -138.5q149 0 318 73v-51q-155 -65 -314 -65 q-158 0 -283.5 68t-193.5 196q-62 -131 -169 -197.5t-247 -66.5q-167 0 -279 87t-112 230zM135 299q0 -125 100.5 -200.5t247.5 -75.5q133 0 235.5 68t162.5 206q-40 103 -43 256h-328q-103 0 -186.5 -27.5t-136 -86t-52.5 -140.5zM883 594h823q-6 199 -112 314.5 t-283 115.5q-114 0 -209 -54.5t-153.5 -153t-65.5 -222.5z" />
<glyph unicode="&#xe7;" horiz-adv-x="1052" d="M102 524q0 234 159.5 387.5t414.5 153.5q139 0 274 -37v-47q-157 43 -282 43q-232 0 -378.5 -141.5t-146.5 -358.5q0 -218 148 -359.5t379 -141.5q123 0 280 43v-43q-147 -43 -274 -43q-33 0 -49 2l-41 -88h6q88 0 146.5 -51.5t58.5 -127.5q0 -75 -59 -125.5t-148 -50.5 q-91 0 -193 47v49q105 -55 195 -55q68 0 116 38.5t48 96.5t-48.5 98t-117.5 40h-72v4l62 129q-216 29 -347 177.5t-131 360.5z" />
<glyph unicode="&#xe8;" horiz-adv-x="1155" d="M102 537q0 227 143 377.5t357 150.5q207 0 329 -137.5t122 -372.5v-12h-910v-6q1 -242 143.5 -378t389.5 -136q141 0 319 73v-51q-163 -65 -319 -65q-265 0 -419.5 149t-154.5 408zM145 584h867q-9 204 -119 322t-291 118q-186 0 -314.5 -124.5t-142.5 -315.5zM399 1556 h56l166 -335h-46z" />
<glyph unicode="&#xe9;" horiz-adv-x="1155" d="M102 537q0 227 143 377.5t357 150.5q207 0 329 -137.5t122 -372.5v-12h-910v-6q1 -242 143.5 -378t389.5 -136q141 0 319 73v-51q-163 -65 -319 -65q-265 0 -419.5 149t-154.5 408zM145 584h867q-9 204 -119 322t-291 118q-186 0 -314.5 -124.5t-142.5 -315.5zM600 1221 l166 335h55l-176 -335h-45z" />
<glyph unicode="&#xea;" horiz-adv-x="1155" d="M102 537q0 227 143 377.5t357 150.5q207 0 329 -137.5t122 -372.5v-12h-910v-6q1 -242 143.5 -378t389.5 -136q141 0 319 73v-51q-163 -65 -319 -65q-265 0 -419.5 149t-154.5 408zM145 584h867q-9 204 -119 322t-291 118q-186 0 -314.5 -124.5t-142.5 -315.5zM328 1221 l252 335h61l252 -335h-55l-228 303l-227 -303h-55z" />
<glyph unicode="&#xeb;" horiz-adv-x="1155" d="M102 537q0 227 143 377.5t357 150.5q207 0 329 -137.5t122 -372.5v-12h-910v-6q1 -242 143.5 -378t389.5 -136q141 0 319 73v-51q-163 -65 -319 -65q-265 0 -419.5 149t-154.5 408zM145 584h867q-9 204 -119 322t-291 118q-186 0 -314.5 -124.5t-142.5 -315.5zM338 1386 q0 20 13.5 33t33.5 13t33.5 -13t13.5 -33t-13.5 -33.5t-33.5 -13.5t-33.5 13.5t-13.5 33.5zM788 1386q0 20 14 33t34 13t33.5 -13t13.5 -33t-13.5 -33.5t-33.5 -13.5t-34 13.5t-14 33.5z" />
<glyph unicode="&#xec;" horiz-adv-x="409" d="M-4 1556h55l166 -335h-45zM184 0v1044h41v-1044h-41z" />
<glyph unicode="&#xed;" horiz-adv-x="409" d="M184 0v1044h41v-1044h-41zM197 1221l165 335h56l-176 -335h-45z" />
<glyph unicode="&#xee;" horiz-adv-x="409" d="M-76 1221l252 335h62l251 -335h-55l-227 303l-227 -303h-56zM184 0v1044h41v-1044h-41z" />
<glyph unicode="&#xef;" horiz-adv-x="409" d="M-66 1386q0 20 14 33t34 13t33.5 -13t13.5 -33t-13.5 -33.5t-33.5 -13.5t-34 13.5t-14 33.5zM184 0v1044h41v-1044h-41zM385 1386q0 20 13.5 33t33.5 13t33.5 -13t13.5 -33t-13.5 -33.5t-33.5 -13.5t-33.5 13.5t-13.5 33.5z" />
<glyph unicode="&#xf0;" horiz-adv-x="1257" d="M102 522q0 153 69 277.5t189.5 195t268.5 70.5q122 0 225.5 -50.5t177.5 -140.5q-53 112 -150 222.5t-214 203.5l-240 -118l-16 30l225 113q-82 60 -172 109h78q66 -40 133 -91l221 111l16 -33l-204 -102q201 -159 323.5 -365t122.5 -422q0 -242 -149.5 -397t-374.5 -155 q-226 0 -377.5 154.5t-151.5 387.5zM143 522q0 -215 139.5 -358.5t346.5 -143.5t346 143.5t139 358.5q0 216 -139 360t-346 144t-346.5 -144t-139.5 -360z" />
<glyph unicode="&#xf1;" horiz-adv-x="1142" d="M176 0v1044h41v-215q147 236 393 236q160 0 264.5 -99.5t104.5 -254.5v-711h-41v707q0 138 -93.5 227.5t-236.5 89.5q-70 0 -132.5 -22t-110 -61t-83.5 -84.5t-65 -100.5v-756h-41zM299 1270q0 70 39.5 112.5t95.5 42.5q34 0 68 -18.5t57 -40.5t54 -40.5t59 -18.5 q42 0 71 33t29 83h43q0 -70 -43 -113.5t-102 -43.5q-35 0 -68.5 18.5t-56.5 40.5t-53.5 40.5t-59.5 18.5q-39 0 -64.5 -30.5t-25.5 -83.5h-43z" />
<glyph unicode="&#xf2;" horiz-adv-x="1257" d="M102 522q0 153 69 277.5t189.5 195t268.5 70.5t268.5 -70.5t189 -195t68.5 -277.5q0 -115 -40.5 -215.5t-110 -172t-167 -113t-208.5 -41.5q-148 0 -268.5 70t-189.5 194.5t-69 277.5zM143 522q0 -215 139.5 -358.5t346.5 -143.5t346 143.5t139 358.5q0 216 -139 360 t-346 144t-346.5 -144t-139.5 -360zM418 1556h55l166 -335h-45z" />
<glyph unicode="&#xf3;" horiz-adv-x="1257" d="M102 522q0 153 69 277.5t189.5 195t268.5 70.5t268.5 -70.5t189 -195t68.5 -277.5q0 -115 -40.5 -215.5t-110 -172t-167 -113t-208.5 -41.5q-148 0 -268.5 70t-189.5 194.5t-69 277.5zM143 522q0 -215 139.5 -358.5t346.5 -143.5t346 143.5t139 358.5q0 216 -139 360 t-346 144t-346.5 -144t-139.5 -360zM618 1221l166 335h56l-176 -335h-46z" />
<glyph unicode="&#xf4;" horiz-adv-x="1257" d="M102 522q0 153 69 277.5t189.5 195t268.5 70.5t268.5 -70.5t189 -195t68.5 -277.5q0 -115 -40.5 -215.5t-110 -172t-167 -113t-208.5 -41.5q-148 0 -268.5 70t-189.5 194.5t-69 277.5zM143 522q0 -215 139.5 -358.5t346.5 -143.5t346 143.5t139 358.5q0 216 -139 360 t-346 144t-346.5 -144t-139.5 -360zM346 1221l252 335h61l252 -335h-55l-227 303l-228 -303h-55z" />
<glyph unicode="&#xf5;" horiz-adv-x="1257" d="M102 522q0 153 69 277.5t189.5 195t268.5 70.5t268.5 -70.5t189 -195t68.5 -277.5q0 -115 -40.5 -215.5t-110 -172t-167 -113t-208.5 -41.5q-148 0 -268.5 70t-189.5 194.5t-69 277.5zM143 522q0 -215 139.5 -358.5t346.5 -143.5t346 143.5t139 358.5q0 216 -139 360 t-346 144t-346.5 -144t-139.5 -360zM356 1270q0 70 40 112.5t96 42.5q34 0 68 -18.5t56.5 -40.5t53 -40.5t59.5 -18.5q42 0 71 33t29 83h43q0 -70 -43 -113.5t-102 -43.5q-35 0 -68.5 18.5t-56.5 40.5t-53.5 40.5t-59.5 18.5q-39 0 -64.5 -30.5t-25.5 -83.5h-43z" />
<glyph unicode="&#xf6;" horiz-adv-x="1257" d="M102 522q0 153 69 277.5t189.5 195t268.5 70.5t268.5 -70.5t189 -195t68.5 -277.5q0 -115 -40.5 -215.5t-110 -172t-167 -113t-208.5 -41.5q-148 0 -268.5 70t-189.5 194.5t-69 277.5zM143 522q0 -215 139.5 -358.5t346.5 -143.5t346 143.5t139 358.5q0 216 -139 360 t-346 144t-346.5 -144t-139.5 -360zM356 1386q0 20 13.5 33t33.5 13t34 -13t14 -33t-14 -33.5t-34 -13.5t-33.5 13.5t-13.5 33.5zM807 1386q0 20 13.5 33t33.5 13t33.5 -13t13.5 -33t-13.5 -33.5t-33.5 -13.5t-33.5 13.5t-13.5 33.5z" />
<glyph unicode="&#xf7;" d="M135 702v37h938v-37h-938zM557 322q0 20 13.5 33.5t33.5 13.5t33.5 -13.5t13.5 -33.5t-13.5 -33t-33.5 -13t-33.5 13t-13.5 33zM557 1118q0 20 13.5 33.5t33.5 13.5t33.5 -13.5t13.5 -33.5t-13.5 -32.5t-33.5 -12.5t-33.5 12.5t-13.5 32.5z" />
<glyph unicode="&#xf8;" horiz-adv-x="1257" d="M43 -41l190 197q-131 150 -131 366q0 153 69 277.5t189.5 195t268.5 70.5q215 0 360 -139l160 159h53l-186 -188q139 -148 139 -375q0 -115 -40.5 -215.5t-110 -172t-167 -113t-208.5 -41.5q-107 0 -202 38.5t-167 108.5l-162 -168h-55zM143 522q0 -194 119 -336l326 336 l373 375q-139 129 -332 129q-207 0 -346.5 -144t-139.5 -360zM289 158q138 -138 340 -138q207 0 346 143.5t139 358.5q0 206 -127 346l-346 -348z" />
<glyph unicode="&#xf9;" horiz-adv-x="1142" d="M164 334v710h41v-706q0 -138 93.5 -228t236.5 -90q135 0 232 75.5t159 193.5v755h41v-1044h-41v215q-64 -103 -161.5 -169t-232.5 -66q-160 0 -264 99.5t-104 254.5zM365 1556h55l166 -335h-45z" />
<glyph unicode="&#xfa;" horiz-adv-x="1142" d="M164 334v710h41v-706q0 -138 93.5 -228t236.5 -90q135 0 232 75.5t159 193.5v755h41v-1044h-41v215q-64 -103 -161.5 -169t-232.5 -66q-160 0 -264 99.5t-104 254.5zM565 1221l166 335h55l-176 -335h-45z" />
<glyph unicode="&#xfb;" horiz-adv-x="1142" d="M164 334v710h41v-706q0 -138 93.5 -228t236.5 -90q135 0 232 75.5t159 193.5v755h41v-1044h-41v215q-64 -103 -161.5 -169t-232.5 -66q-160 0 -264 99.5t-104 254.5zM293 1221l252 335h61l252 -335h-55l-228 303l-227 -303h-55z" />
<glyph unicode="&#xfc;" horiz-adv-x="1142" d="M164 334v710h41v-706q0 -138 93.5 -228t236.5 -90q135 0 232 75.5t159 193.5v755h41v-1044h-41v215q-64 -103 -161.5 -169t-232.5 -66q-160 0 -264 99.5t-104 254.5zM303 1386q0 20 13.5 33t33.5 13t33.5 -13t13.5 -33t-13.5 -33.5t-33.5 -13.5t-33.5 13.5t-13.5 33.5z M754 1386q0 20 13.5 33t33.5 13t33.5 -13t13.5 -33t-13.5 -33.5t-33.5 -13.5t-33.5 13.5t-13.5 33.5z" />
<glyph unicode="&#xfd;" horiz-adv-x="1071" d="M53 1044h49l445 -962l422 962h49l-617 -1392h-49l170 377zM526 1221l166 335h56l-177 -335h-45z" />
<glyph unicode="&#xfe;" horiz-adv-x="1280" d="M176 -348v1782h41v-643q63 116 186 195t273 79q140 0 255 -71t181 -196t66 -278q0 -231 -144.5 -385.5t-357.5 -154.5q-152 0 -274.5 80.5t-184.5 195.5v-604h-41zM217 324q22 -51 62.5 -101.5t97.5 -96.5t135 -74.5t162 -28.5q196 0 329.5 142.5t133.5 356.5t-134.5 358 t-330.5 144q-82 0 -159 -28t-134 -73t-98.5 -96.5t-63.5 -103.5v-399z" />
<glyph unicode="&#xff;" horiz-adv-x="1071" d="M53 1044h49l445 -962l422 962h49l-617 -1392h-49l170 377zM264 1386q0 20 13.5 33t33.5 13t33.5 -13t13.5 -33t-13.5 -33.5t-33.5 -13.5t-33.5 13.5t-13.5 33.5zM715 1386q0 20 13.5 33t33.5 13t33.5 -13t13.5 -33t-13.5 -33.5t-33.5 -13.5t-33.5 13.5t-13.5 33.5z" />
<glyph unicode="&#x152;" horiz-adv-x="2301" d="M102 717q0 200 104.5 365t284.5 258.5t394 93.5h1253v-41h-895v-625h877v-41h-877v-686h895v-41h-1253q-214 0 -394 93.5t-284.5 258.5t-104.5 365zM143 717q0 -189 99 -344.5t269 -243.5t374 -88h317v1352h-317q-204 0 -374 -88t-269 -243.5t-99 -344.5z" />
<glyph unicode="&#x153;" horiz-adv-x="2166" d="M102 522q0 153 69 277.5t189.5 195t268.5 70.5q182 0 319 -104.5t185 -274.5q43 170 174 274.5t307 104.5q207 0 328.5 -137.5t121.5 -372.5v-12h-909v-6q1 -242 143.5 -378t389.5 -136q141 0 319 73v-51q-163 -65 -319 -65q-216 0 -361.5 101.5t-191.5 283.5 q-46 -172 -184.5 -278.5t-321.5 -106.5q-148 0 -268.5 70t-189.5 194.5t-69 277.5zM143 522q0 -215 139.5 -358.5t346.5 -143.5t346 143.5t139 358.5q0 216 -139 360t-346 144t-346.5 -144t-139.5 -360zM1157 584h866q-9 204 -118.5 322t-290.5 118q-186 0 -314.5 -124.5 t-142.5 -315.5z" />
<glyph unicode="&#x178;" horiz-adv-x="1290" d="M49 1434h55l543 -824l539 824h55l-573 -869v-565h-41v565zM373 1776q0 20 13.5 32.5t33.5 12.5t33.5 -12.5t13.5 -32.5t-13.5 -33.5t-33.5 -13.5t-33.5 13.5t-13.5 33.5zM823 1776q0 20 13.5 32.5t33.5 12.5q21 0 34.5 -12.5t13.5 -32.5t-14 -33.5t-34 -13.5t-33.5 13.5 t-13.5 33.5z" />
<glyph unicode="&#x2c6;" horiz-adv-x="1228" d="M332 1221l252 335h61l252 -335h-55l-228 303l-227 -303h-55z" />
<glyph unicode="&#x2dc;" horiz-adv-x="1228" d="M342 1270q0 70 39.5 112.5t95.5 42.5q34 0 68 -18.5t57 -40.5t53.5 -40.5t59.5 -18.5q42 0 71 33t29 83h43q0 -70 -43 -113.5t-102 -43.5q-35 0 -68.5 18.5t-56.5 40.5t-53.5 40.5t-59.5 18.5q-39 0 -64.5 -30.5t-25.5 -83.5h-43z" />
<glyph unicode="&#x2000;" horiz-adv-x="973" />
<glyph unicode="&#x2001;" horiz-adv-x="1946" />
<glyph unicode="&#x2002;" horiz-adv-x="973" />
<glyph unicode="&#x2003;" horiz-adv-x="1946" />
<glyph unicode="&#x2004;" horiz-adv-x="648" />
<glyph unicode="&#x2005;" horiz-adv-x="486" />
<glyph unicode="&#x2006;" horiz-adv-x="324" />
<glyph unicode="&#x2007;" horiz-adv-x="324" />
<glyph unicode="&#x2008;" horiz-adv-x="243" />
<glyph unicode="&#x2009;" horiz-adv-x="389" />
<glyph unicode="&#x200a;" horiz-adv-x="108" />
<glyph unicode="&#x2010;" horiz-adv-x="880" d="M143 541v41h594v-41h-594z" />
<glyph unicode="&#x2011;" horiz-adv-x="880" d="M143 541v41h594v-41h-594z" />
<glyph unicode="&#x2012;" horiz-adv-x="880" d="M143 541v41h594v-41h-594z" />
<glyph unicode="&#x2013;" horiz-adv-x="1228" d="M143 541v41h942v-41h-942z" />
<glyph unicode="&#x2014;" horiz-adv-x="2048" d="M143 541v41h1762v-41h-1762z" />
<glyph unicode="&#x2018;" horiz-adv-x="311" d="M39 969l180 465h41l-168 -465h-53z" />
<glyph unicode="&#x2019;" horiz-adv-x="311" d="M39 969l168 465h53l-180 -465h-41z" />
<glyph unicode="&#x201a;" horiz-adv-x="311" d="M39 -293l168 465h53l-180 -465h-41z" />
<glyph unicode="&#x201c;" horiz-adv-x="516" d="M51 969l180 465h41l-168 -465h-53zM256 969l180 465h41l-168 -465h-53z" />
<glyph unicode="&#x201d;" horiz-adv-x="516" d="M39 969l168 465h53l-180 -465h-41zM244 969l168 465h53l-180 -465h-41z" />
<glyph unicode="&#x201e;" horiz-adv-x="516" d="M39 -293l168 465h53l-180 -465h-41zM244 -293l168 465h53l-180 -465h-41z" />
<glyph unicode="&#x2022;" horiz-adv-x="606" d="M162 561q0 60 40.5 100.5t100.5 40.5t100.5 -40.5t40.5 -100.5q0 -59 -40 -97t-101 -38t-101 38t-40 97z" />
<glyph unicode="&#x2026;" horiz-adv-x="1114" d="M162 25q0 20 13.5 33.5t33.5 13.5t33.5 -13.5t13.5 -33.5t-13.5 -32.5t-33.5 -12.5t-33.5 12.5t-13.5 32.5zM510 25q0 20 13.5 33.5t33.5 13.5t33.5 -13.5t13.5 -33.5t-13.5 -32.5t-33.5 -12.5t-33.5 12.5t-13.5 32.5zM858 25q0 20 13.5 33.5t33.5 13.5t33.5 -13.5 t13.5 -33.5t-13.5 -32.5t-33.5 -12.5t-33.5 12.5t-13.5 32.5z" />
<glyph unicode="&#x202f;" horiz-adv-x="389" />
<glyph unicode="&#x2039;" horiz-adv-x="458" d="M53 537l312 376h41l-312 -376l312 -377h-41z" />
<glyph unicode="&#x203a;" horiz-adv-x="458" d="M53 160l312 377l-312 376h41l312 -376l-312 -377h-41z" />
<glyph unicode="&#x205f;" horiz-adv-x="486" />
<glyph unicode="&#x20ac;" horiz-adv-x="1564" d="M143 537v41h154q-10 75 -10 139q0 83 16 168h-160v41h168q60 241 250 384.5t479 143.5q101 0 190.5 -18.5t219.5 -73.5v-43q-131 57 -219.5 75.5t-186.5 18.5q-274 0 -452.5 -131.5t-237.5 -355.5h701v-41h-711q-16 -85 -16 -168q0 -64 10 -139h717v-41h-709 q53 -236 234 -376.5t464 -140.5q97 0 186 19t220 76v-43q-130 -55 -219.5 -73.5t-190.5 -18.5q-297 0 -490 152t-245 405h-162z" />
<glyph unicode="&#x2122;" horiz-adv-x="1341" d="M102 1397v37h443v-37h-201v-537h-37v537h-205zM657 860v574h50l241 -504l244 504h47v-574h-37v510l-250 -510h-8l-250 516v-516h-37z" />
<glyph unicode="&#x25fc;" horiz-adv-x="1044" d="M0 0v1044h1044v-1044h-1044z" />
</font>
</defs>
</svg>
