<?xml version="1.0" standalone="no"?>
<!DOCTYPE svg PUBLIC "-//W3C//DTD SVG 1.1//EN" "http://www.w3.org/Graphics/SVG/1.1/DTD/svg11.dtd" >
<svg xmlns="http://www.w3.org/2000/svg" xmlns:xlink="http://www.w3.org/1999/xlink" version="1.1">
<metadata></metadata>
<defs>
<font id="milliardmedium" horiz-adv-x="1222" >
<font-face units-per-em="2048" ascent="1638" descent="-410" />
<missing-glyph horiz-adv-x="456" />
<glyph unicode="&#xfb01;" horiz-adv-x="1347" d="M61 872v172h158v46q0 159 112.5 261.5t284.5 102.5q59 0 144 -10v-172q-68 12 -121 12q-91 0 -148 -55.5t-57 -143.5v-41h326v-172h-326v-872h-215v872h-158zM926 1380q0 60 41.5 100t101.5 40t100.5 -40t40.5 -100t-40.5 -100.5t-100.5 -40.5t-101.5 40.5t-41.5 100.5z M961 0v1044h215v-1044h-215z" />
<glyph unicode="&#xfb02;" horiz-adv-x="1277" d="M61 872v172h158v46q0 159 112.5 261.5t284.5 102.5q59 0 144 -10v-172q-68 12 -121 12q-91 0 -148 -55.5t-57 -143.5v-41h326v-172h-326v-872h-215v872h-158zM926 0v1434h217v-1434h-217z" />
<glyph horiz-adv-x="0" />
<glyph horiz-adv-x="682" />
<glyph unicode=" "  horiz-adv-x="456" />
<glyph unicode="&#x09;" horiz-adv-x="456" />
<glyph unicode="&#xa0;" horiz-adv-x="456" />
<glyph unicode="!" horiz-adv-x="593" d="M154 119q0 60 41.5 101.5t101.5 41.5t100.5 -41.5t40.5 -101.5t-40.5 -99.5t-100.5 -39.5t-101.5 39.5t-41.5 99.5zM182 1434h232l-13 -975h-206z" />
<glyph unicode="&#x22;" horiz-adv-x="724" d="M113 893v541h184v-541h-184zM430 893v541h184v-541h-184z" />
<glyph unicode="#" horiz-adv-x="1386" d="M61 354v166h244l62 369h-244v166h272l66 379h172l-66 -379h355l65 379h174l-65 -379h229v-166h-258l-61 -369h258v-166h-287l-62 -354h-174l62 354h-354l-62 -354h-172l61 354h-215zM477 520h354l62 369h-354z" />
<glyph unicode="$" horiz-adv-x="1257" d="M152 100v228q108 -71 247 -121.5t240 -50.5q115 0 187.5 65t72.5 162q0 58 -25 102t-67.5 72.5t-97.5 50.5t-116 41.5t-121.5 40.5t-115.5 51t-97.5 69t-67.5 100t-25 139q0 151 99.5 257.5t266.5 137.5v205h195v-197q177 -14 346 -70v-206q-238 108 -426 108 q-119 0 -192.5 -63t-73.5 -156q0 -68 40.5 -116t105 -76.5t142 -53t155.5 -55t142.5 -72.5t105 -116.5t40.5 -176.5q0 -165 -106 -277.5t-279 -135.5v-201h-195v201q-205 26 -380 114z" />
<glyph unicode="%" horiz-adv-x="1888" d="M53 1100q0 161 113.5 268t282.5 107q167 0 279 -106.5t112 -266.5q0 -161 -113 -269t-281 -108q-169 0 -281 107t-112 268zM236 1106q0 -101 60.5 -166.5t152.5 -65.5q90 0 149 64t59 162t-60 161.5t-151 63.5t-150.5 -62t-59.5 -157zM410 0l483 768l383 666h182 l-418 -666l-446 -768h-184zM1049 354q0 161 113 268t282 107q167 0 279 -106.5t112 -266.5q0 -161 -112.5 -268.5t-280.5 -107.5q-169 0 -281 106.5t-112 267.5zM1231 360q0 -101 60 -166t153 -65q90 0 149.5 63.5t59.5 161.5t-60 162t-151 64t-151 -62.5t-60 -157.5z" />
<glyph unicode="&#x26;" horiz-adv-x="1570" d="M92 391q0 74 25 135t74 108t101.5 81t125.5 69q-82 88 -123 165.5t-41 160.5q0 151 115 247.5t282 96.5q170 0 283 -97t113 -245q0 -114 -77 -200.5t-235 -166.5l332 -315q67 89 170 277h223q-141 -260 -258 -404l318 -303h-281l-168 160q-201 -180 -459 -180 q-228 0 -374 115t-146 296zM315 401q0 -101 82 -167t217 -66q176 0 322 123l-387 368q-50 -24 -85.5 -45t-72.5 -52.5t-56.5 -72t-19.5 -88.5zM465 1108q0 -62 36.5 -119t100.5 -119q62 28 101.5 50t76.5 51.5t54.5 63.5t17.5 75q0 77 -56 129.5t-139 52.5q-82 0 -137 -53.5 t-55 -130.5z" />
<glyph unicode="'" horiz-adv-x="411" d="M113 893v541h186v-541h-186z" />
<glyph unicode="(" horiz-adv-x="747" d="M102 715q0 251 98 472.5t269 377.5h246q-188 -155 -294 -376.5t-106 -473.5q0 -249 104.5 -470t287.5 -376h-246q-167 156 -263 377t-96 469z" />
<glyph unicode=")" horiz-adv-x="747" d="M33 1565h246q171 -156 268.5 -377t97.5 -473q0 -248 -96 -469t-262 -377h-246q183 155 287 375.5t104 470.5q0 253 -106 474t-293 376z" />
<glyph unicode="*" horiz-adv-x="880" d="M76 1063l270 119l-270 116l82 140l233 -170l-31 288h162l-33 -290l236 172l80 -140l-266 -116l266 -119l-80 -139l-236 174l33 -293h-162l31 291l-233 -172z" />
<glyph unicode="+" horiz-adv-x="1292" d="M137 625v192h410v408h201v-408h407v-192h-407v-408h-201v408h-410z" />
<glyph unicode="," horiz-adv-x="522" d="M55 -293l99 543h262l-195 -543h-166z" />
<glyph unicode="-" horiz-adv-x="804" d="M98 475v191h609v-191h-609z" />
<glyph unicode="." horiz-adv-x="522" d="M119 119q0 60 40.5 101.5t100.5 41.5q61 0 102 -41.5t41 -101.5t-40.5 -99.5t-102.5 -39.5q-60 0 -100.5 39.5t-40.5 99.5z" />
<glyph unicode="/" horiz-adv-x="890" d="M80 0l551 1434h180l-551 -1434h-180z" />
<glyph unicode="0" horiz-adv-x="1396" d="M102 717q0 341 160.5 539t435.5 198q277 0 437.5 -198t160.5 -539t-160.5 -539t-437.5 -198q-275 0 -435.5 198t-160.5 539zM330 717q2 -253 99 -398t267 -145q172 0 271.5 145.5t99.5 397.5t-99.5 398.5t-271.5 146.5q-170 0 -267 -146t-99 -399z" />
<glyph unicode="1" horiz-adv-x="864" d="M61 1044v220l590 190h11v-1454h-226v1217z" />
<glyph unicode="2" horiz-adv-x="1228" d="M106 0v10l484 547q51 58 76.5 88.5t62 81t54 87.5t31 85.5t13.5 97.5q0 121 -72 190.5t-204 69.5q-92 0 -193 -41.5t-252 -136.5v240q253 135 478 135q221 0 349 -119t128 -329q0 -135 -64.5 -248t-242.5 -301l-248 -264h600v-193h-1000z" />
<glyph unicode="3" horiz-adv-x="1191" d="M129 80v237q252 -145 444 -145q127 0 207 68.5t80 173.5q0 106 -92 174.5t-238 68.5h-184v11l381 575h-596v191h930v-11l-393 -608q180 -27 295.5 -135.5t115.5 -267.5q0 -190 -143.5 -310t-368.5 -122q-209 -3 -438 100z" />
<glyph unicode="4" horiz-adv-x="1282" d="M53 346v10l377 1078h242l-336 -906h471v476h211v-476h205v-182h-205v-346h-211v346h-754z" />
<glyph unicode="5" horiz-adv-x="1193" d="M119 57v226q254 -109 428 -109q140 0 229.5 79.5t89.5 199.5q0 125 -100 204.5t-274 79.5h-347l41 697h861v-193h-670l-12 -323h167q250 0 404 -128.5t154 -334.5q0 -208 -151.5 -341.5t-389.5 -133.5q-209 0 -430 77z" />
<glyph unicode="6" horiz-adv-x="1263" d="M102 655q0 234 88 415.5t250.5 282.5t374.5 101q125 0 254 -33v-215q-128 51 -246 51q-218 0 -349.5 -138.5t-156.5 -375.5q67 84 164 127t207 43q202 0 337.5 -131t135.5 -331q0 -204 -145 -337.5t-363 -133.5q-224 0 -368 141q-183 183 -183 534zM317 545 q19 -186 107 -285.5t227 -99.5q126 0 207.5 80t81.5 209t-79 209.5t-204 80.5q-59 0 -116.5 -17t-119 -62t-104.5 -115z" />
<glyph unicode="7" horiz-adv-x="1200" d="M49 1243v191h1114v-11l-706 -1423h-273l670 1243h-805z" />
<glyph unicode="8" horiz-adv-x="1230" d="M80 393q0 130 82 226t213 139q-121 45 -182.5 128.5t-61.5 192.5q0 167 136 271t349 104q212 0 348 -104t136 -271q0 -111 -61.5 -194t-178.5 -129q130 -44 211.5 -139t81.5 -226q0 -181 -151.5 -296t-385.5 -115t-385 115.5t-151 297.5zM305 408q0 -104 89 -174t222 -70 t222.5 70t89.5 174q0 109 -89 181.5t-223 72.5q-133 0 -222 -72.5t-89 -181.5zM346 1065q0 -97 76.5 -162t193.5 -65q115 0 192 65t77 162q0 89 -76.5 148t-192.5 59q-117 0 -193.5 -59t-76.5 -148z" />
<glyph unicode="9" horiz-adv-x="1263" d="M102 983q0 204 145 337.5t363 133.5q106 0 202 -36t167 -105q182 -182 182 -535q0 -234 -87.5 -415t-250 -282t-374.5 -101q-129 0 -254 32v215q128 -51 245 -51q218 0 349.5 138.5t156.5 375.5q-67 -84 -164 -127t-207 -43q-202 0 -337.5 131.5t-135.5 331.5zM324 985 q0 -129 78.5 -210t203.5 -81q93 0 185.5 46.5t154.5 148.5q-19 186 -107 285.5t-227 99.5q-126 0 -207 -80t-81 -209z" />
<glyph unicode=":" horiz-adv-x="522" d="M119 119q0 60 40.5 101.5t100.5 41.5t101.5 -41.5t41.5 -101.5t-41.5 -99.5t-101.5 -39.5t-100.5 39.5t-40.5 99.5zM119 926q0 60 40.5 99.5t100.5 39.5t101.5 -39.5t41.5 -99.5t-41.5 -102t-101.5 -42t-100.5 42t-40.5 102z" />
<glyph unicode=";" horiz-adv-x="522" d="M55 -293l99 543h262l-195 -543h-166zM133 926q0 60 40.5 99.5t100.5 39.5q61 0 102.5 -39.5t41.5 -99.5t-42 -102t-102 -42t-100.5 42t-40.5 102z" />
<glyph unicode="&#x3c;" horiz-adv-x="1292" d="M166 610v221l926 424v-213l-756 -323l756 -324v-207z" />
<glyph unicode="=" horiz-adv-x="1292" d="M158 416v192h977v-192h-977zM158 834v194h977v-194h-977z" />
<glyph unicode="&#x3e;" horiz-adv-x="1292" d="M201 188v207l755 324l-755 323v213l925 -424v-221z" />
<glyph unicode="?" horiz-adv-x="919" d="M41 1126v230q184 98 352 98q197 0 326 -110t129 -279q0 -64 -20.5 -120.5t-54 -97.5t-73.5 -78t-79.5 -70t-73 -65.5t-54 -72t-20.5 -82.5v-20h-207v24q0 57 19.5 106t50.5 85t68.5 69.5t75 65t68.5 64.5t50.5 75t19.5 90q0 96 -68.5 156.5t-178.5 60.5q-135 0 -330 -129 zM225 119q0 60 42 101.5t102 41.5t100.5 -41.5t40.5 -101.5t-40.5 -99.5t-100.5 -39.5q-61 0 -102.5 39.5t-41.5 99.5z" />
<glyph unicode="@" horiz-adv-x="1886" d="M88 549q0 245 116 445t318.5 313.5t450.5 113.5q233 0 422 -102.5t296 -284t107 -405.5q0 -220 -107 -359t-284 -139q-99 0 -164 44.5t-90 123.5q-34 -75 -110.5 -122.5t-178.5 -47.5q-162 0 -264 120t-102 304q0 181 101 298.5t263 117.5q87 0 158.5 -37t114.5 -109 l-2 127h178v-569q0 -57 33 -92t90 -35q68 0 121 50.5t80.5 132.5t27.5 179q0 145 -52 272t-142.5 217.5t-218.5 142.5t-275 52q-155 0 -293 -57.5t-237 -156.5t-156.5 -238t-57.5 -297q0 -157 57.5 -295t157 -236.5t240 -155.5t299.5 -57q189 0 349 71t280 188v-177 q-277 -204 -623 -204q-255 0 -462 112.5t-324 310t-117 441.5zM686 553q0 -118 64 -194t172 -76q54 0 97 22t67 49t49 70v252q-17 27 -25 38.5t-29 36t-40.5 36t-51.5 22t-69 10.5q-107 0 -170.5 -74.5t-63.5 -191.5z" />
<glyph unicode="A" horiz-adv-x="1568" d="M66 0l567 1434h303l567 -1434h-239l-136 350h-690l-133 -350h-239zM506 526h555l-277 723z" />
<glyph unicode="B" horiz-adv-x="1380" d="M168 0v1434h639q201 0 321.5 -97t120.5 -252q0 -117 -71.5 -209t-214.5 -120q155 -28 239 -130t84 -231q0 -169 -134 -282t-335 -113h-649zM385 186h408q117 0 194.5 68.5t77.5 167.5q0 42 -16 82t-49 76.5t-94 59t-142 22.5h-379v-476zM385 836h375q129 0 198.5 62.5 t69.5 154.5q0 88 -66.5 141t-179.5 53h-397v-411z" />
<glyph unicode="C" horiz-adv-x="1445" d="M100 715q0 154 59.5 290.5t164 235.5t255 156t324.5 57q175 0 400 -72v-223q-229 96 -408 96q-166 0 -296.5 -72t-200.5 -194.5t-70 -273.5q0 -112 41 -210.5t114.5 -171t180 -114t231.5 -41.5q179 0 408 96v-221q-220 -73 -400 -73q-174 0 -324.5 57t-255 155 t-164 233.5t-59.5 289.5z" />
<glyph unicode="D" horiz-adv-x="1548" d="M168 0v1434h520q215 0 389 -92t273.5 -256t99.5 -369q0 -207 -99.5 -371.5t-273.5 -255t-389 -90.5h-520zM389 199h301q234 0 383.5 145t149.5 373q0 226 -151.5 372t-381.5 146h-301v-1036z" />
<glyph unicode="E" horiz-adv-x="1318" d="M168 0v1434h997v-193h-780v-399h754v-187h-754v-462h780v-193h-997z" />
<glyph unicode="F" horiz-adv-x="1275" d="M168 0v1434h997v-195h-776v-401h729v-193h-729v-645h-221z" />
<glyph unicode="G" horiz-adv-x="1552" d="M100 715q0 154 59.5 290.5t164 235.5t255 156t324.5 57q185 0 410 -72v-223q-229 96 -418 96q-166 0 -296.5 -72t-200.5 -194.5t-70 -273.5q0 -112 41 -210.5t114.5 -171t180 -114t231.5 -41.5q86 0 154.5 10.5t156.5 42.5v385h-379v189h586v-715q-169 -67 -274.5 -88.5 t-227.5 -21.5q-178 0 -330 57t-257 155t-164.5 233.5t-59.5 289.5z" />
<glyph unicode="H" horiz-adv-x="1525" d="M168 0v1434h221v-596h748v596h221v-1434h-221v637h-748v-637h-221z" />
<glyph unicode="I" horiz-adv-x="575" d="M178 0v1434h221v-1434h-221z" />
<glyph unicode="J" horiz-adv-x="1046" d="M63 45v234q88 -51 160 -75t152 -24q131 0 216 77.5t85 197.5v979h219v-983q0 -206 -143.5 -338.5t-368.5 -132.5q-176 0 -320 65z" />
<glyph unicode="K" horiz-adv-x="1476" d="M168 0v1434h217v-793l735 793h285l-584 -611l598 -823h-289l-460 666l-285 -299v-367h-217z" />
<glyph unicode="L" horiz-adv-x="1234" d="M168 0v1434h221v-1237h737v-197h-958z" />
<glyph unicode="M" horiz-adv-x="1961" d="M168 0v1434h346l469 -1106l467 1106h346v-1434h-217v1231l-522 -1231h-150l-522 1235v-1235h-217z" />
<glyph unicode="N" horiz-adv-x="1589" d="M168 0v1434h272l766 -1147v1147h217v-1434h-274l-764 1151v-1151h-217z" />
<glyph unicode="O" horiz-adv-x="1636" d="M100 715q0 209 91 377.5t255.5 265t372.5 96.5q207 0 371 -96.5t255 -265t91 -377.5q0 -156 -53.5 -292t-147 -233.5t-227.5 -153.5t-289 -56q-208 0 -372.5 96t-255.5 263.5t-91 375.5zM328 715q0 -233 135.5 -384t355.5 -151t355 151t135 384q0 235 -135 387.5 t-355 152.5t-355.5 -152.5t-135.5 -387.5z" />
<glyph unicode="P" horiz-adv-x="1359" d="M168 0v1434h633q215 0 353 -121t138 -303q0 -186 -138 -309t-353 -123h-412v-578h-221zM389 762h404q124 0 203 71t79 175q0 101 -78.5 168t-203.5 67h-404v-481z" />
<glyph unicode="Q" horiz-adv-x="1681" d="M100 715q0 209 91 377.5t255.5 265t372.5 96.5q207 0 371 -96.5t255 -265t91 -377.5q0 -156 -53 -291.5t-150 -235.5l258 -305h-262l-147 189q-162 -92 -363 -92q-208 0 -372.5 96t-255.5 263.5t-91 375.5zM328 715q0 -233 135.5 -384t355.5 -151t355 151t135 384 q0 235 -135 387.5t-355 152.5t-355.5 -152.5t-135.5 -387.5z" />
<glyph unicode="R" horiz-adv-x="1413" d="M168 0v1434h633q215 0 353 -121t138 -303q0 -163 -108 -279.5t-285 -144.5l440 -586h-282l-387 578h-281v-578h-221zM389 762h404q124 0 203 71t79 175q0 101 -78.5 168t-203.5 67h-404v-481z" />
<glyph unicode="S" horiz-adv-x="1234" d="M113 94v254q131 -82 268.5 -130t245.5 -48q120 0 193 60.5t73 154.5q0 57 -26.5 100t-70.5 70t-102 49t-121.5 40.5t-127 39t-121.5 51t-102 70.5t-70.5 103t-26.5 143q0 179 143 291t375 112q209 0 440 -70v-233q-259 115 -450 115q-123 0 -197 -56t-74 -143 q0 -52 26.5 -91t70.5 -64t102 -45t121.5 -38.5t127 -39t121.5 -52t102 -73t70.5 -106t26.5 -146.5q0 -187 -136 -309.5t-361 -122.5q-262 0 -520 114z" />
<glyph unicode="T" horiz-adv-x="1312" d="M80 1237v197h1153v-197h-465v-1237h-225v1237h-463z" />
<glyph unicode="U" horiz-adv-x="1456" d="M152 553v881h221v-879q0 -172 95.5 -273.5t260.5 -101.5t259.5 101t94.5 274v879h222v-881q0 -262 -156.5 -417.5t-419.5 -155.5q-264 0 -420.5 155.5t-156.5 417.5z" />
<glyph unicode="V" horiz-adv-x="1456" d="M66 1434h251l412 -1227l410 1227h252l-512 -1434h-304z" />
<glyph unicode="W" horiz-adv-x="2220" d="M66 1434h262l297 -1198l354 1198h262l373 -1201l280 1201h260l-382 -1434h-310l-354 1223l-334 -1223h-309z" />
<glyph unicode="X" horiz-adv-x="1382" d="M66 0l485 721l-485 713h276l350 -564l348 564h277l-483 -715l483 -719h-281l-344 565l-346 -565h-280z" />
<glyph unicode="Y" horiz-adv-x="1415" d="M66 1434h272l371 -689l368 689h273l-531 -904v-530h-221v530z" />
<glyph unicode="Z" horiz-adv-x="1290" d="M80 0v10l764 1233h-744v191h1102v-11l-764 -1233h758v-190h-1116z" />
<glyph unicode="[" horiz-adv-x="698" d="M113 -131v1696h514v-176h-318v-1344h318v-176h-514z" />
<glyph unicode="\" horiz-adv-x="890" d="M80 1434h180l551 -1434h-180z" />
<glyph unicode="]" horiz-adv-x="698" d="M72 45h317v1344h-317v176h514v-1696h-514v176z" />
<glyph unicode="^" horiz-adv-x="1015" d="M129 969l301 465h158l301 -465h-197l-186 336l-187 -336h-190z" />
<glyph unicode="_" horiz-adv-x="1032" d="M20 -174h992v-154h-992v154z" />
<glyph unicode="`" horiz-adv-x="1228" d="M281 1556h292l127 -346h-172z" />
<glyph unicode="a" horiz-adv-x="1118" d="M78 322q0 147 106.5 244.5t272.5 97.5q183 0 303 -134v123q0 115 -67.5 176.5t-198.5 61.5q-139 0 -310 -92v211q188 55 355 55q208 0 323 -105t115 -298v-662h-217v127q-122 -147 -303 -147q-166 0 -272.5 97.5t-106.5 244.5zM293 322q0 -83 63 -137t160 -54 q138 0 244 131v119q-108 133 -244 133q-97 0 -160 -55t-63 -137z" />
<glyph unicode="b" horiz-adv-x="1269" d="M135 0v1434h217v-531q134 162 344 162q215 0 350.5 -154t135.5 -389q0 -236 -135 -389t-351 -153q-211 0 -344 161v-141h-217zM352 328q117 -164 283 -164q147 0 239.5 102t92.5 258q0 154 -91.5 255.5t-234.5 101.5q-81 0 -156 -42.5t-133 -123.5v-387z" />
<glyph unicode="c" horiz-adv-x="1056" d="M88 524q0 236 163.5 388.5t416.5 152.5q138 0 284 -35v-205q-157 56 -278 56q-161 0 -265 -102t-104 -255q0 -154 105 -257t266 -103q113 0 276 55v-201q-136 -38 -282 -38q-254 0 -418 152.5t-164 391.5z" />
<glyph unicode="d" horiz-adv-x="1269" d="M88 522q0 236 135.5 389.5t351.5 153.5q100 0 189 -41.5t156 -122.5v533h215v-1434h-215v143q-132 -163 -345 -163q-216 0 -351.5 153t-135.5 389zM305 524q0 -156 92.5 -258t239.5 -102q163 0 283 164v387q-58 81 -133 123.5t-156 42.5q-145 0 -235.5 -101.5 t-90.5 -255.5z" />
<glyph unicode="e" horiz-adv-x="1173" d="M88 543q0 231 144.5 376.5t373.5 145.5q217 0 348 -142t131 -372v-82h-780q15 -162 108 -238.5t267 -76.5q133 0 344 79v-194q-187 -59 -358 -59q-276 0 -427 147.5t-151 415.5zM305 618h576q-18 133 -87 209t-188 76q-125 0 -203.5 -76t-97.5 -209z" />
<glyph unicode="f" horiz-adv-x="790" d="M61 872v172h158v46q0 159 112.5 261.5t284.5 102.5q59 0 144 -10v-172q-68 12 -121 12q-91 0 -148 -55.5t-57 -143.5v-41h326v-172h-326v-872h-215v872h-158z" />
<glyph unicode="g" horiz-adv-x="1286" d="M88 561q0 142 61.5 257.5t170.5 181t243 65.5q227 0 355 -182v161h215v-968q0 -189 -155 -317t-398 -128q-207 0 -412 95v211q135 -74 227 -104t183 -30q151 0 245.5 78t94.5 205v147q-124 -180 -353 -180q-206 0 -341.5 145t-135.5 363zM305 561q0 -141 91.5 -235.5 t228.5 -94.5q94 0 169.5 49t123.5 138v282q-50 90 -125 138.5t-168 48.5q-136 0 -228 -94t-92 -232z" />
<glyph unicode="h" d="M154 0v1434h215v-568q142 199 346 199q157 0 260.5 -97t103.5 -274v-694h-215v657q0 105 -58 158t-147 53q-143 0 -290 -178v-690h-215z" />
<glyph unicode="i" horiz-adv-x="557" d="M135 1380q0 60 42 100t102 40t100.5 -40t40.5 -100t-40.5 -100.5t-100.5 -40.5t-102 40.5t-42 100.5zM170 0v1044h215v-1044h-215z" />
<glyph unicode="j" horiz-adv-x="548" d="M-164 -180q72 -21 121 -21q91 0 148 54.5t57 142.5v1048h215v-1038q0 -160 -113 -267.5t-284 -107.5q-50 0 -144 11v178zM127 1380q0 60 41.5 100t101.5 40t101 -40t41 -100t-41 -100.5t-101 -40.5t-101.5 40.5t-41.5 100.5z" />
<glyph unicode="k" horiz-adv-x="1155" d="M135 0v1434h217v-906l482 516h272l-412 -423l439 -621h-281l-295 481l-205 -211v-270h-217z" />
<glyph unicode="l" horiz-adv-x="487" d="M135 0v1434h217v-1434h-217z" />
<glyph unicode="m" horiz-adv-x="1886" d="M154 0v1044h215v-184q67 97 149.5 151t198.5 54q119 0 201 -58t118 -165q71 105 159.5 164t209.5 59q157 0 248.5 -100t91.5 -273v-692h-215v645q0 103 -54.5 163t-146.5 60q-75 0 -134.5 -43t-137.5 -135v-690h-215v645q0 104 -55 163.5t-148 59.5q-77 0 -139 -45.5 t-131 -144.5v-678h-215z" />
<glyph unicode="n" d="M154 0v1044h215v-178q142 199 346 199q157 0 260.5 -97t103.5 -274v-694h-215v657q0 105 -58 158t-147 53q-143 0 -290 -178v-690h-215z" />
<glyph unicode="o" horiz-adv-x="1284" d="M88 526q0 152 72.5 275.5t199.5 193.5t283 70q237 0 395 -154t158 -385q0 -234 -158 -390t-395 -156q-116 0 -219 41.5t-177 113.5t-116.5 174t-42.5 217zM305 524q0 -157 96.5 -259.5t241.5 -102.5t240.5 102t95.5 260q0 155 -95.5 257t-240.5 102t-241.5 -102 t-96.5 -257z" />
<glyph unicode="p" horiz-adv-x="1294" d="M154 -348v1392h215v-149q133 170 350 170q215 0 350 -154t135 -389q0 -236 -134.5 -389t-350.5 -153q-214 0 -350 170v-498h-215zM369 336q115 -172 288 -172q147 0 239.5 102t92.5 258q0 154 -91 255.5t-234 101.5q-83 0 -160 -45t-135 -129v-371z" />
<glyph unicode="q" horiz-adv-x="1294" d="M90 522q0 235 135 389t350 154q218 0 351 -170v149h215v-1392h-215v498q-136 -170 -351 -170q-216 0 -350.5 153t-134.5 389zM305 524q0 -156 92.5 -258t239.5 -102q174 0 289 172v371q-58 84 -135 129t-160 45q-143 0 -234.5 -101.5t-91.5 -255.5z" />
<glyph unicode="r" horiz-adv-x="854" d="M154 0v1044h217v-221q28 53 61.5 93t82.5 75.5t119 54.5t157 19v-225q-164 0 -261 -34t-159 -118v-688h-217z" />
<glyph unicode="s" horiz-adv-x="964" d="M84 72v219q119 -73 208 -108.5t177 -35.5q92 0 141 34.5t49 94.5q0 43 -24.5 75t-64.5 50t-91.5 35.5t-105 31t-105 37t-91.5 52.5t-64.5 80t-24.5 117q0 142 112 226.5t300 84.5q75 0 170 -13t170 -40l-4 -211q-81 49 -172.5 74.5t-167.5 25.5q-90 0 -138.5 -34 t-48.5 -93q0 -35 19.5 -61.5t52.5 -43t76 -30t90.5 -26t95 -27.5t90.5 -38.5t76 -54.5t52.5 -80t19.5 -112q0 -143 -103.5 -232t-285.5 -89q-198 0 -408 92z" />
<glyph unicode="t" horiz-adv-x="806" d="M61 872v172h156v279h215v-279h330v-172h-330v-522q0 -88 40 -135t116 -47q61 0 147 18v-190q-75 -16 -170 -16q-161 0 -254.5 94.5t-93.5 255.5v542h-156z" />
<glyph unicode="u" d="M143 377v667h215v-643q0 -104 65 -163.5t155 -59.5q77 0 141.5 44.5t134.5 133.5v688h215v-1044h-215v190q-68 -100 -150 -155t-196 -55q-155 0 -260 105.5t-105 291.5z" />
<glyph unicode="v" horiz-adv-x="1144" d="M41 1044h242l288 -849l289 849h242l-397 -1044h-265z" />
<glyph unicode="w" horiz-adv-x="1650" d="M49 1044h248l186 -802l236 802h213l235 -804l187 804h248l-302 -1044h-245l-230 815l-227 -815h-248z" />
<glyph unicode="x" horiz-adv-x="1079" d="M41 0l356 524l-356 520h260l240 -385l237 385h258l-354 -520l354 -524h-258l-237 397l-240 -397h-260z" />
<glyph unicode="y" horiz-adv-x="1144" d="M41 1044h240l317 -763l262 763h244l-567 -1390h-263l218 422z" />
<glyph unicode="z" horiz-adv-x="1003" d="M80 870v174h831v-10l-508 -858h498v-176h-819v10l514 860h-516z" />
<glyph unicode="{" horiz-adv-x="794" d="M41 629v174h78q67 0 112 37.5t45 93.5v397q0 107 69.5 170.5t176.5 63.5h201v-176h-188q-27 0 -44.5 -21.5t-17.5 -54.5v-393q0 -70 -38 -122t-105 -81q67 -29 105 -81t38 -122v-393q0 -33 17.5 -54.5t44.5 -21.5h188v-176h-201q-107 0 -176.5 63.5t-69.5 169.5v396 q0 56 -45 93.5t-112 37.5h-78z" />
<glyph unicode="|" horiz-adv-x="651" d="M236 -61v1556h180v-1556h-180z" />
<glyph unicode="}" horiz-adv-x="794" d="M72 45h188q27 0 44.5 21.5t17.5 54.5v393q0 70 38 122t105 81q-67 29 -105 81t-38 122v393q0 33 -17.5 54.5t-44.5 21.5h-188v176h200q107 0 176.5 -63.5t69.5 -170.5v-397q0 -56 45.5 -93.5t112.5 -37.5h78v-174h-78q-67 0 -112.5 -37.5t-45.5 -93.5v-396 q0 -106 -69.5 -169.5t-176.5 -63.5h-200v176z" />
<glyph unicode="~" horiz-adv-x="1099" d="M123 594q0 68 21.5 120t57.5 82t79 45t90 15q58 0 121.5 -21t119 -42t95.5 -21q47 0 76.5 24.5t29.5 61.5h164q0 -68 -22 -120.5t-59.5 -82.5t-81.5 -44.5t-93 -14.5q-57 0 -120.5 21t-119 42t-94.5 21q-43 0 -70.5 -25t-27.5 -61h-166z" />
<glyph unicode="&#xa1;" horiz-adv-x="593" d="M154 967q0 60 41.5 99.5t101.5 39.5t100.5 -39.5t40.5 -99.5t-40.5 -102t-100.5 -42t-101.5 42t-41.5 102zM182 -348l13 975h206l13 -975h-232z" />
<glyph unicode="&#xa2;" horiz-adv-x="1097" d="M88 524q0 195 114.5 336.5t303.5 186.5v243h180v-225q135 -4 266 -35v-205q-157 56 -278 56q-161 0 -265 -102t-104 -255q0 -154 105 -257t266 -103q113 0 276 55v-201q-121 -34 -266 -38v-205h-180v223q-189 46 -303.5 188t-114.5 338z" />
<glyph unicode="&#xa3;" horiz-adv-x="1267" d="M86 588v176h186l2 252q0 200 134.5 319t359.5 119q168 0 383 -72v-206q-235 108 -379 108q-132 0 -207.5 -74t-75.5 -202l-2 -244h580v-176h-580l-2 -402h717v-186h-1114v186h178l4 402h-184z" />
<glyph unicode="&#xa4;" horiz-adv-x="1208" d="M94 274l144 146q-72 112 -72 246q0 135 70 241l-142 144l131 131l144 -146q104 66 235 66t234 -64l143 144l131 -131l-141 -144q69 -107 69 -241t-69 -246l141 -146l-131 -131l-145 148q-103 -64 -232 -64q-130 0 -233 64l-146 -148zM336 666q0 -120 76.5 -199.5 t191.5 -79.5q114 0 190 79.5t76 199.5q0 118 -76 197t-190 79q-115 0 -191.5 -78.5t-76.5 -197.5z" />
<glyph unicode="&#xa5;" horiz-adv-x="1415" d="M66 1434h272l371 -689l368 689h273l-430 -734h303v-147h-392l-12 -23v-149h404v-148h-404v-233h-221v233h-401v148h401v149l-12 23h-389v147h301z" />
<glyph unicode="&#xa6;" horiz-adv-x="651" d="M236 -61v649h180v-649h-180zM236 846v649h180v-649h-180z" />
<glyph unicode="&#xa7;" horiz-adv-x="1275" d="M68 741q0 110 60.5 191.5t160.5 130.5q-8 31 -8 72q0 141 110 230t279 89q147 0 313 -61v-199q-185 88 -315 88q-76 0 -126 -38t-50 -95q0 -37 24.5 -71.5t66 -64t95.5 -59t113.5 -60.5t119 -64.5t113.5 -74.5t95.5 -87t66 -106t24.5 -128q0 -107 -59 -186.5t-158 -126.5 q6 -27 6 -60q0 -141 -112 -230t-281 -89q-145 0 -311 61v201q181 -90 313 -90q76 0 127 38.5t51 96.5q0 47 -39.5 89t-103 77t-140 71.5t-153 80t-140 94t-103 123t-39.5 157.5zM272 770q0 -56 36.5 -105.5t93.5 -85t131.5 -74t145 -72t140 -81t111.5 -98.5q34 25 54 67 t20 89q0 55 -35 104t-90 85t-128 76.5t-142 75t-138.5 83t-112.5 98.5q-86 -59 -86 -162z" />
<glyph unicode="&#xa8;" horiz-adv-x="1228" d="M238 1380q0 60 40.5 100t100.5 40t101.5 -40t41.5 -100t-41.5 -101.5t-101.5 -41.5t-100.5 41.5t-40.5 101.5zM713 1380q0 60 40.5 100t100.5 40t101.5 -40t41.5 -100t-41.5 -101.5t-101.5 -41.5t-100.5 41.5t-40.5 101.5z" />
<glyph unicode="&#xa9;" horiz-adv-x="1591" d="M61 719q0 154 56.5 290.5t154 234t233.5 154t290 56.5q206 0 374.5 -96t264.5 -264.5t96 -374.5q0 -156 -56.5 -293t-154 -235t-234 -154.5t-290.5 -56.5t-290 56.5t-233.5 154.5t-154 235t-56.5 293zM207 719q0 -169 77 -307t211.5 -216.5t299.5 -78.5q124 0 233.5 46.5 t187.5 126t123 191.5t45 238q0 167 -76.5 304t-212 215.5t-300.5 78.5q-164 0 -299 -78.5t-212 -215.5t-77 -304zM422 713q0 166 119.5 279.5t302.5 113.5q92 0 198 -41v-147q-112 51 -192 51q-117 0 -191.5 -74t-74.5 -182t74.5 -181t191.5 -73q80 0 192 51v-152 q-108 -39 -200 -39q-181 0 -300.5 114t-119.5 280z" />
<glyph unicode="&#xaa;" horiz-adv-x="923" d="M57 840q0 122 88 202t224 80q149 0 249 -94v80q0 92 -52.5 143.5t-157.5 51.5q-124 0 -263 -80v182q151 49 312 49q169 0 264.5 -88.5t95.5 -249.5v-541h-199v91q-104 -107 -253 -107q-133 0 -220.5 80.5t-87.5 200.5zM252 840q0 -65 48.5 -108.5t123.5 -43.5 q106 0 194 107v92q-88 106 -194 106q-74 0 -123 -44t-49 -109z" />
<glyph unicode="&#xab;" horiz-adv-x="1052" d="M90 537l277 376h215l-277 -376l277 -377h-215zM487 537l275 376h217l-277 -376l277 -377h-217z" />
<glyph unicode="&#xad;" horiz-adv-x="804" d="M98 475v191h609v-191h-609z" />
<glyph unicode="&#xae;" horiz-adv-x="983" d="M61 1024q0 183 124.5 306.5t306.5 123.5q181 0 305.5 -124t124.5 -306t-125 -307t-305 -125q-182 0 -306.5 124.5t-124.5 307.5zM135 1024q0 -154 103 -259.5t254 -105.5q150 0 252 105.5t102 259.5q0 152 -102 257t-252 105t-253.5 -105.5t-103.5 -256.5zM324 817v436 h194q70 0 117 -41t47 -100q0 -44 -28 -81t-74 -54l118 -160h-129l-84 150h-55v-150h-106zM430 1044h82q31 0 51.5 20.5t20.5 45.5t-20 43t-52 18h-82v-127z" />
<glyph unicode="&#xaf;" horiz-adv-x="1228" d="M354 1311v157h523v-157h-523z" />
<glyph unicode="&#xb0;" horiz-adv-x="829" d="M82 1130q0 138 96 231t238 93t237 -93t95 -231q0 -141 -94.5 -234t-237.5 -93t-238.5 93t-95.5 234zM229 1130q0 -84 53 -139t134 -55q79 0 131.5 55.5t52.5 138.5q0 82 -52.5 136.5t-131.5 54.5q-81 0 -134 -54.5t-53 -136.5z" />
<glyph unicode="&#xb1;" horiz-adv-x="1292" d="M152 0v178h991v-178h-991zM152 741v183h399l-2 387h194l-2 -387h400v-183h-400l2 -387h-194l2 387h-399z" />
<glyph unicode="&#xb2;" horiz-adv-x="729" d="M39 -199l289 332q47 54 62.5 72t40.5 53.5t32.5 61.5t7.5 57q0 65 -39.5 107t-109.5 42q-99 0 -265 -125v189q146 86 293 86q138 0 218.5 -74.5t80.5 -200.5q0 -73 -38.5 -143.5t-139.5 -185.5l-123 -135h336v-142h-645v6z" />
<glyph unicode="&#xb3;" horiz-adv-x="712" d="M57 524v140h609v-7l-244 -366q103 -25 167 -87.5t64 -158.5q0 -115 -91.5 -188.5t-244.5 -73.5q-116 0 -256 51v166q160 -78 265 -78q74 0 117.5 35t43.5 90q0 62 -56.5 102.5t-137.5 40.5h-105v7l220 327h-351z" />
<glyph unicode="&#xb4;" horiz-adv-x="1228" d="M528 1210l127 346h293l-248 -346h-172z" />
<glyph unicode="&#xb6;" horiz-adv-x="1292" d="M61 995q0 191 135.5 315t344.5 124h299v-1682h-207v832h-103q-204 0 -336.5 115.5t-132.5 295.5zM948 -248v1682h176v-1682h-176z" />
<glyph unicode="&#xb7;" horiz-adv-x="522" d="M119 584q0 60 40.5 101.5t100.5 41.5t101.5 -41.5t41.5 -101.5t-41.5 -100t-101.5 -40t-100.5 40t-40.5 100z" />
<glyph unicode="&#xb8;" horiz-adv-x="1232" d="M365 -279q116 -55 188 -55q44 0 72 22.5t28 55.5q0 41 -38.5 64.5t-96.5 23.5h-74v4l72 191h143l-34 -97q76 -11 130 -62.5t54 -127.5q0 -91 -70 -146t-184 -55q-94 0 -190 35v147z" />
<glyph unicode="&#xb9;" horiz-adv-x="503" d="M29 393v162l391 121h6v-881h-166v694z" />
<glyph unicode="&#xba;" horiz-adv-x="1030" d="M63 1012q0 191 128 316.5t323 125.5q197 0 325 -125.5t128 -316.5q0 -196 -128 -324.5t-325 -128.5q-195 0 -323 129t-128 324zM260 1008q0 -122 72 -201.5t182 -79.5q113 0 184.5 79.5t71.5 201.5t-71.5 201t-184.5 79q-110 0 -182 -79t-72 -201z" />
<glyph unicode="&#xbb;" horiz-adv-x="1052" d="M74 160l276 377l-276 376h217l274 -376l-274 -377h-217zM471 160l277 377l-277 376h215l277 -376l-277 -377h-215z" />
<glyph unicode="&#xbc;" horiz-adv-x="1769" d="M29 1174v161l391 121h6v-881h-166v695zM270 0l484 768l383 666h182l-418 -666l-446 -768h-185zM999 201v6l209 661h174l-168 -526h242v266h158v-266h119v-141h-119v-201h-158v201h-457z" />
<glyph unicode="&#xbd;" horiz-adv-x="1773" d="M29 1174v161l391 121h6v-881h-166v695zM270 0l484 768l383 666h182l-418 -666l-446 -768h-185zM1083 0v6l289 332q88 100 110 134q34 55 34 110q0 65 -40 107t-110 42q-98 0 -264 -125v189q146 86 293 86q138 0 218.5 -74.5t80.5 -200.5q0 -73 -38.5 -144t-139.5 -186 l-123 -135h336v-141h-646z" />
<glyph unicode="&#xbe;" horiz-adv-x="1875" d="M57 1296v140h609v-6l-244 -367q103 -25 167 -87.5t64 -158.5q0 -115 -91.5 -188.5t-244.5 -73.5q-116 0 -256 51v166q160 -78 265 -78q74 0 117.5 35t43.5 90q0 62 -56.5 103t-137.5 41h-105v6l220 327h-351zM377 0l483 768l383 666h182l-417 -666l-447 -768h-184z M1106 201v6l209 661h174l-168 -526h242v266h157v-266h119v-141h-119v-201h-157v201h-457z" />
<glyph unicode="&#xbf;" horiz-adv-x="919" d="M72 20q0 64 20.5 120.5t53.5 97.5t73 78t80 70t73 65.5t53.5 72t20.5 82.5v21h207v-25q0 -57 -19.5 -106t-50.5 -85t-68.5 -69.5t-75 -65t-68.5 -64.5t-50.5 -75t-19.5 -90q0 -96 69 -156.5t179 -60.5q135 0 330 129v-229q-186 -99 -353 -99q-197 0 -325.5 110 t-128.5 279zM410 967q0 60 40.5 99.5t100.5 39.5t101.5 -39.5t41.5 -99.5t-41.5 -102t-101.5 -42t-100.5 42t-40.5 102z" />
<glyph unicode="&#xc0;" horiz-adv-x="1568" d="M66 0l567 1434h303l567 -1434h-239l-136 350h-690l-133 -350h-239zM449 1946h292l127 -347h-172zM506 526h555l-277 723z" />
<glyph unicode="&#xc1;" horiz-adv-x="1568" d="M66 0l567 1434h303l567 -1434h-239l-136 350h-690l-133 -350h-239zM506 526h555l-277 723zM717 1599l127 347h293l-248 -347h-172z" />
<glyph unicode="&#xc2;" horiz-adv-x="1568" d="M66 0l567 1434h303l567 -1434h-239l-136 350h-690l-133 -350h-239zM436 1599l234 347h227l236 -347h-197l-152 197l-151 -197h-197zM506 526h555l-277 723z" />
<glyph unicode="&#xc3;" horiz-adv-x="1568" d="M66 0l567 1434h303l567 -1434h-239l-136 350h-690l-133 -350h-239zM455 1659q0 125 59.5 187.5t147.5 62.5q39 0 76 -15.5t60.5 -34t51.5 -34t51 -15.5q33 0 50.5 24t17.5 60h143q0 -128 -60.5 -188.5t-148.5 -60.5q-47 0 -92 24t-81.5 48t-63.5 24q-34 0 -50 -23.5 t-16 -58.5h-145zM506 526h555l-277 723z" />
<glyph unicode="&#xc4;" horiz-adv-x="1568" d="M66 0l567 1434h303l567 -1434h-239l-136 350h-690l-133 -350h-239zM408 1769q0 60 40.5 100t100.5 40t101.5 -40t41.5 -100t-41.5 -101.5t-101.5 -41.5t-100.5 41.5t-40.5 101.5zM506 526h555l-277 723zM883 1769q0 60 40.5 100t100.5 40t101.5 -40t41.5 -100 t-41.5 -101.5t-101.5 -41.5t-100.5 41.5t-40.5 101.5z" />
<glyph unicode="&#xc5;" horiz-adv-x="1568" d="M66 0l550 1395q-75 62 -75 168q0 97 69.5 161t173.5 64t174 -64t70 -161q0 -105 -76 -168l551 -1395h-239l-136 350h-690l-133 -350h-239zM506 526h555l-277 723zM682 1563q0 -45 29 -75t73 -30t73.5 30.5t29.5 74.5t-29.5 73t-73.5 29t-73 -29t-29 -73z" />
<glyph unicode="&#xc6;" horiz-adv-x="2242" d="M66 0l956 1434h1067v-193h-733v-399h708v-187h-708v-462h733v-193h-950v350h-576l-223 -350h-274zM678 528h461v723z" />
<glyph unicode="&#xc7;" horiz-adv-x="1445" d="M100 715q0 154 59.5 290.5t164 235.5t255 156t324.5 57q175 0 400 -72v-223q-229 96 -408 96q-166 0 -296.5 -72t-200.5 -194.5t-70 -273.5q0 -112 41 -210.5t114.5 -171t180 -114t231.5 -41.5q179 0 408 96v-221q-220 -73 -400 -73l-18 -50q76 -11 130 -62.5t54 -127.5 q0 -91 -70 -146t-184 -55q-94 0 -190 35v147q116 -55 188 -55q44 0 72 22.5t28 55.5q0 41 -38.5 64.5t-96.5 23.5h-73v4l57 154q-295 43 -478.5 244.5t-183.5 480.5z" />
<glyph unicode="&#xc8;" horiz-adv-x="1318" d="M168 0v1434h997v-193h-780v-399h754v-187h-754v-462h780v-193h-997zM336 1946h293l127 -347h-172z" />
<glyph unicode="&#xc9;" horiz-adv-x="1318" d="M168 0v1434h997v-193h-780v-399h754v-187h-754v-462h780v-193h-997zM584 1599l127 347h293l-248 -347h-172z" />
<glyph unicode="&#xca;" horiz-adv-x="1318" d="M168 0v1434h997v-193h-780v-399h754v-187h-754v-462h780v-193h-997zM322 1599l233 347h227l236 -347h-197l-151 197l-152 -197h-196z" />
<glyph unicode="&#xcb;" horiz-adv-x="1318" d="M168 0v1434h997v-193h-780v-399h754v-187h-754v-462h780v-193h-997zM293 1769q0 60 40.5 100t100.5 40t102 -40t42 -100t-42 -101.5t-102 -41.5t-100.5 41.5t-40.5 101.5zM768 1769q0 60 40.5 100t100.5 40t102 -40t42 -100t-42 -101.5t-102 -41.5t-100.5 41.5 t-40.5 101.5z" />
<glyph unicode="&#xcc;" horiz-adv-x="575" d="M-45 1946h293l127 -347h-172zM178 0v1434h221v-1434h-221z" />
<glyph unicode="&#xcd;" horiz-adv-x="575" d="M178 0v1434h221v-1434h-221zM203 1599l127 347h293l-248 -347h-172z" />
<glyph unicode="&#xce;" horiz-adv-x="575" d="M-59 1599l233 347h227l236 -347h-197l-151 197l-152 -197h-196zM178 0v1434h221v-1434h-221z" />
<glyph unicode="&#xcf;" horiz-adv-x="575" d="M-88 1769q0 60 40.5 100t100.5 40t102 -40t42 -100t-42 -101.5t-102 -41.5t-100.5 41.5t-40.5 101.5zM178 0v1434h221v-1434h-221zM387 1769q0 60 40.5 100t100.5 40t102 -40t42 -100t-42 -101.5t-102 -41.5t-100.5 41.5t-40.5 101.5z" />
<glyph unicode="&#xd0;" horiz-adv-x="1548" d="M10 637v147h158v650h520q215 0 389 -92t273.5 -256t99.5 -369q0 -207 -99.5 -371.5t-273.5 -255t-389 -90.5h-520v637h-158zM389 199h301q234 0 383.5 145t149.5 373q0 226 -151.5 372t-381.5 146h-301v-451h273v-147h-273v-438z" />
<glyph unicode="&#xd1;" horiz-adv-x="1589" d="M168 0v1434h272l766 -1147v1147h217v-1434h-274l-764 1151v-1151h-217zM508 1659q0 125 59.5 187.5t147.5 62.5q39 0 76 -15.5t60.5 -34t51.5 -34t51 -15.5q33 0 50.5 24t17.5 60h143q0 -128 -60.5 -188.5t-148.5 -60.5q-47 0 -92 24t-81.5 48t-63.5 24q-34 0 -50 -23.5 t-16 -58.5h-145z" />
<glyph unicode="&#xd2;" horiz-adv-x="1636" d="M100 715q0 209 91 377.5t255.5 265t372.5 96.5q207 0 371 -96.5t255 -265t91 -377.5q0 -156 -53.5 -292t-147 -233.5t-227.5 -153.5t-289 -56q-208 0 -372.5 96t-255.5 263.5t-91 375.5zM328 715q0 -233 135.5 -384t355.5 -151t355 151t135 384q0 235 -135 387.5 t-355 152.5t-355.5 -152.5t-135.5 -387.5zM485 1946h293l127 -347h-172z" />
<glyph unicode="&#xd3;" horiz-adv-x="1636" d="M100 715q0 209 91 377.5t255.5 265t372.5 96.5q207 0 371 -96.5t255 -265t91 -377.5q0 -156 -53.5 -292t-147 -233.5t-227.5 -153.5t-289 -56q-208 0 -372.5 96t-255.5 263.5t-91 375.5zM328 715q0 -233 135.5 -384t355.5 -151t355 151t135 384q0 235 -135 387.5 t-355 152.5t-355.5 -152.5t-135.5 -387.5zM733 1599l127 347h293l-248 -347h-172z" />
<glyph unicode="&#xd4;" horiz-adv-x="1636" d="M100 715q0 209 91 377.5t255.5 265t372.5 96.5q207 0 371 -96.5t255 -265t91 -377.5q0 -156 -53.5 -292t-147 -233.5t-227.5 -153.5t-289 -56q-208 0 -372.5 96t-255.5 263.5t-91 375.5zM328 715q0 -233 135.5 -384t355.5 -151t355 151t135 384q0 235 -135 387.5 t-355 152.5t-355.5 -152.5t-135.5 -387.5zM471 1599l234 347h227l235 -347h-196l-152 197l-151 -197h-197z" />
<glyph unicode="&#xd5;" horiz-adv-x="1636" d="M100 715q0 209 91 377.5t255.5 265t372.5 96.5q207 0 371 -96.5t255 -265t91 -377.5q0 -156 -53.5 -292t-147 -233.5t-227.5 -153.5t-289 -56q-208 0 -372.5 96t-255.5 263.5t-91 375.5zM328 715q0 -233 135.5 -384t355.5 -151t355 151t135 384q0 235 -135 387.5 t-355 152.5t-355.5 -152.5t-135.5 -387.5zM489 1659q0 125 59.5 187.5t147.5 62.5q39 0 76 -15.5t61 -34t52 -34t51 -15.5q33 0 50.5 24t17.5 60h143q0 -128 -60.5 -188.5t-148.5 -60.5q-37 0 -74 15t-61 33t-52.5 33t-50.5 15q-34 0 -49.5 -23.5t-15.5 -58.5h-146z" />
<glyph unicode="&#xd6;" horiz-adv-x="1636" d="M100 715q0 209 91 377.5t255.5 265t372.5 96.5q207 0 371 -96.5t255 -265t91 -377.5q0 -156 -53.5 -292t-147 -233.5t-227.5 -153.5t-289 -56q-208 0 -372.5 96t-255.5 263.5t-91 375.5zM328 715q0 -233 135.5 -384t355.5 -151t355 151t135 384q0 235 -135 387.5 t-355 152.5t-355.5 -152.5t-135.5 -387.5zM442 1769q0 60 41 100t101 40t101.5 -40t41.5 -100t-41.5 -101.5t-101.5 -41.5t-101 41.5t-41 101.5zM918 1769q0 60 40.5 100t100.5 40t101.5 -40t41.5 -100t-41.5 -101.5t-101.5 -41.5t-100.5 41.5t-40.5 101.5z" />
<glyph unicode="&#xd7;" horiz-adv-x="1288" d="M168 377l346 346l-346 344l133 131l344 -344l344 344l133 -131l-344 -344l344 -346l-133 -131l-344 344l-344 -344z" />
<glyph unicode="&#xd8;" horiz-adv-x="1636" d="M94 0l185 215q-179 204 -179 500q0 209 91 377.5t255.5 265t372.5 96.5q242 0 424 -131l96 111h199l-186 -209q184 -206 184 -510q0 -156 -53.5 -292t-147 -233.5t-227.5 -153.5t-289 -56q-243 0 -428 133l-96 -113h-201zM328 715q0 -192 96 -334l334 387l348 397 q-123 90 -287 90q-220 0 -355.5 -152.5t-135.5 -387.5zM526 272q129 -92 293 -92q220 0 355 151t135 384q0 202 -103 346l-266 -299z" />
<glyph unicode="&#xd9;" horiz-adv-x="1456" d="M152 553v881h221v-879q0 -172 95.5 -273.5t260.5 -101.5t259.5 101t94.5 274v879h222v-881q0 -262 -156.5 -417.5t-419.5 -155.5q-264 0 -420.5 155.5t-156.5 417.5zM395 1946h293l127 -347h-172z" />
<glyph unicode="&#xda;" horiz-adv-x="1456" d="M152 553v881h221v-879q0 -172 95.5 -273.5t260.5 -101.5t259.5 101t94.5 274v879h222v-881q0 -262 -156.5 -417.5t-419.5 -155.5q-264 0 -420.5 155.5t-156.5 417.5zM643 1599l127 347h293l-248 -347h-172z" />
<glyph unicode="&#xdb;" horiz-adv-x="1456" d="M152 553v881h221v-879q0 -172 95.5 -273.5t260.5 -101.5t259.5 101t94.5 274v879h222v-881q0 -262 -156.5 -417.5t-419.5 -155.5q-264 0 -420.5 155.5t-156.5 417.5zM381 1599l233 347h228l235 -347h-196l-152 197l-151 -197h-197z" />
<glyph unicode="&#xdc;" horiz-adv-x="1456" d="M152 553v881h221v-879q0 -172 95.5 -273.5t260.5 -101.5t259.5 101t94.5 274v879h222v-881q0 -262 -156.5 -417.5t-419.5 -155.5q-264 0 -420.5 155.5t-156.5 417.5zM352 1769q0 60 41 100t101 40t101.5 -40t41.5 -100t-41.5 -101.5t-101.5 -41.5t-101 41.5t-41 101.5z M827 1769q0 60 41 100t101 40t101.5 -40t41.5 -100t-41.5 -101.5t-101.5 -41.5t-101 41.5t-41 101.5z" />
<glyph unicode="&#xdd;" horiz-adv-x="1415" d="M66 1434h272l371 -689l368 689h273l-531 -904v-530h-221v530zM623 1599l127 347h292l-247 -347h-172z" />
<glyph unicode="&#xde;" horiz-adv-x="1359" d="M168 0v1434h221v-277h412q214 0 352.5 -125.5t138.5 -308.5q0 -187 -138.5 -314.5t-352.5 -127.5h-412v-281h-221zM389 465h404q123 0 202.5 75t79.5 181q0 101 -79.5 172.5t-202.5 71.5h-404v-500z" />
<glyph unicode="&#xdf;" horiz-adv-x="1273" d="M154 0v989q0 213 130.5 339t348.5 126q190 0 314 -98t124 -252q0 -64 -23 -119t-55.5 -90.5t-65.5 -65t-56 -57t-23 -51.5q0 -23 19 -43t48.5 -37.5t66 -36.5t73 -45t66 -57.5t48.5 -79t19 -105.5q0 -149 -111 -243t-284 -94q-122 0 -232 36v209q111 -57 219 -57 q83 0 137 45t54 113q0 52 -35 90.5t-84.5 64.5t-99 53t-84.5 72t-35 105q0 48 22.5 88.5t55 70t64.5 59t54.5 69.5t22.5 87q0 84 -63.5 133.5t-157.5 49.5q-117 0 -186.5 -75t-69.5 -200v-993h-221z" />
<glyph unicode="&#xe0;" horiz-adv-x="1118" d="M78 322q0 147 106.5 244.5t272.5 97.5q183 0 303 -134v123q0 115 -67.5 176.5t-198.5 61.5q-139 0 -310 -92v211q188 55 355 55q208 0 323 -105t115 -298v-662h-217v127q-122 -147 -303 -147q-166 0 -272.5 97.5t-106.5 244.5zM240 1556h292l127 -346h-172zM293 322 q0 -83 63 -137t160 -54q138 0 244 131v119q-108 133 -244 133q-97 0 -160 -55t-63 -137z" />
<glyph unicode="&#xe1;" horiz-adv-x="1118" d="M78 322q0 147 106.5 244.5t272.5 97.5q183 0 303 -134v123q0 115 -67.5 176.5t-198.5 61.5q-139 0 -310 -92v211q188 55 355 55q208 0 323 -105t115 -298v-662h-217v127q-122 -147 -303 -147q-166 0 -272.5 97.5t-106.5 244.5zM293 322q0 -83 63 -137t160 -54 q138 0 244 131v119q-108 133 -244 133q-97 0 -160 -55t-63 -137zM487 1210l127 346h293l-248 -346h-172z" />
<glyph unicode="&#xe2;" horiz-adv-x="1118" d="M78 322q0 147 106.5 244.5t272.5 97.5q183 0 303 -134v123q0 115 -67.5 176.5t-198.5 61.5q-139 0 -310 -92v211q188 55 355 55q208 0 323 -105t115 -298v-662h-217v127q-122 -147 -303 -147q-166 0 -272.5 97.5t-106.5 244.5zM225 1210l234 346h227l236 -346h-197 l-152 197l-151 -197h-197zM293 322q0 -83 63 -137t160 -54q138 0 244 131v119q-108 133 -244 133q-97 0 -160 -55t-63 -137z" />
<glyph unicode="&#xe3;" horiz-adv-x="1118" d="M78 322q0 147 106.5 244.5t272.5 97.5q183 0 303 -134v123q0 115 -67.5 176.5t-198.5 61.5q-139 0 -310 -92v211q188 55 355 55q208 0 323 -105t115 -298v-662h-217v127q-122 -147 -303 -147q-166 0 -272.5 97.5t-106.5 244.5zM244 1270q0 125 59.5 187.5t147.5 62.5 q49 0 94 -25t81 -49.5t64 -24.5q33 0 50.5 24t17.5 60h143q0 -128 -60.5 -189t-148.5 -61q-37 0 -74 15t-61 33.5t-52 33.5t-50 15q-34 0 -50 -23.5t-16 -58.5h-145zM293 322q0 -83 63 -137t160 -54q138 0 244 131v119q-108 133 -244 133q-97 0 -160 -55t-63 -137z" />
<glyph unicode="&#xe4;" horiz-adv-x="1118" d="M78 322q0 147 106.5 244.5t272.5 97.5q183 0 303 -134v123q0 115 -67.5 176.5t-198.5 61.5q-139 0 -310 -92v211q188 55 355 55q208 0 323 -105t115 -298v-662h-217v127q-122 -147 -303 -147q-166 0 -272.5 97.5t-106.5 244.5zM197 1380q0 60 40.5 100t100.5 40 t101.5 -40t41.5 -100t-41.5 -101.5t-101.5 -41.5t-100.5 41.5t-40.5 101.5zM293 322q0 -83 63 -137t160 -54q138 0 244 131v119q-108 133 -244 133q-97 0 -160 -55t-63 -137zM672 1380q0 60 40.5 100t100.5 40t101.5 -40t41.5 -100t-41.5 -101.5t-101.5 -41.5t-100.5 41.5 t-40.5 101.5z" />
<glyph unicode="&#xe5;" horiz-adv-x="1118" d="M78 322q0 147 106.5 244.5t272.5 97.5q183 0 303 -134v123q0 115 -67.5 176.5t-198.5 61.5q-139 0 -310 -92v211q188 55 355 55q208 0 323 -105t115 -298v-662h-217v127q-122 -147 -303 -147q-166 0 -272.5 97.5t-106.5 244.5zM293 322q0 -83 63 -137t160 -54 q138 0 244 131v119q-108 133 -244 133q-97 0 -160 -55t-63 -137zM330 1434q0 97 69.5 161t173.5 64t174 -64t70 -161q0 -98 -70 -163t-174 -65t-173.5 65t-69.5 163zM471 1434q0 -45 29 -75t73 -30t73.5 30.5t29.5 74.5t-29.5 73t-73.5 29t-73 -29t-29 -73z" />
<glyph unicode="&#xe6;" horiz-adv-x="1810" d="M78 297q0 147 120 239.5t304 92.5h258v2q0 260 -266 260q-139 0 -310 -92v211q187 55 353 55q268 0 356 -184q127 184 367 184q214 0 338 -141t124 -373v-72h-745q10 -169 93.5 -247t250.5 -78q77 0 154 18t188 61v-194q-187 -59 -346 -59q-298 0 -443 184 q-78 -96 -183.5 -140t-217.5 -44q-172 0 -283.5 88t-111.5 229zM293 307q0 -77 61 -124.5t156 -47.5q75 0 156 46.5t129 140.5q-28 86 -33 157h-248q-98 0 -159.5 -46.5t-61.5 -125.5zM981 629h535q-14 128 -78.5 201t-180.5 73q-115 0 -185 -72t-91 -202z" />
<glyph unicode="&#xe7;" horiz-adv-x="1056" d="M88 524q0 236 163.5 388.5t416.5 152.5q138 0 284 -35v-205q-157 56 -278 56q-161 0 -265 -102t-104 -255q0 -154 105 -257t266 -103q113 0 276 55v-201q-134 -38 -276 -38l-19 -50q76 -11 130.5 -62.5t54.5 -127.5q0 -91 -70 -146t-184 -55q-95 0 -191 35v147 q116 -55 189 -55q44 0 72 22.5t28 55.5q0 41 -38.5 64.5t-96.5 23.5h-74v4l60 156q-203 39 -326 183t-123 349z" />
<glyph unicode="&#xe8;" horiz-adv-x="1173" d="M88 543q0 231 144.5 376.5t373.5 145.5q217 0 348 -142t131 -372v-82h-780q15 -162 108 -238.5t267 -76.5q133 0 344 79v-194q-187 -59 -358 -59q-276 0 -427 147.5t-151 415.5zM270 1556h293l127 -346h-172zM305 618h576q-18 133 -87 209t-188 76q-125 0 -203.5 -76 t-97.5 -209z" />
<glyph unicode="&#xe9;" horiz-adv-x="1173" d="M88 543q0 231 144.5 376.5t373.5 145.5q217 0 348 -142t131 -372v-82h-780q15 -162 108 -238.5t267 -76.5q133 0 344 79v-194q-187 -59 -358 -59q-276 0 -427 147.5t-151 415.5zM305 618h576q-18 133 -87 209t-188 76q-125 0 -203.5 -76t-97.5 -209zM518 1210l127 346 h293l-248 -346h-172z" />
<glyph unicode="&#xea;" horiz-adv-x="1173" d="M88 543q0 231 144.5 376.5t373.5 145.5q217 0 348 -142t131 -372v-82h-780q15 -162 108 -238.5t267 -76.5q133 0 344 79v-194q-187 -59 -358 -59q-276 0 -427 147.5t-151 415.5zM256 1210l233 346h228l235 -346h-196l-152 197l-151 -197h-197zM305 618h576 q-18 133 -87 209t-188 76q-125 0 -203.5 -76t-97.5 -209z" />
<glyph unicode="&#xeb;" horiz-adv-x="1173" d="M88 543q0 231 144.5 376.5t373.5 145.5q217 0 348 -142t131 -372v-82h-780q15 -162 108 -238.5t267 -76.5q133 0 344 79v-194q-187 -59 -358 -59q-276 0 -427 147.5t-151 415.5zM227 1380q0 60 41 100t101 40t101.5 -40t41.5 -100t-41.5 -101.5t-101.5 -41.5t-101 41.5 t-41 101.5zM305 618h576q-18 133 -87 209t-188 76q-125 0 -203.5 -76t-97.5 -209zM702 1380q0 60 41 100t101 40t101.5 -40t41.5 -100t-41.5 -101.5t-101.5 -41.5t-101 41.5t-41 101.5z" />
<glyph unicode="&#xec;" horiz-adv-x="557" d="M-55 1556h293l127 -346h-172zM170 0v1044h215v-1044h-215z" />
<glyph unicode="&#xed;" horiz-adv-x="557" d="M170 0v1044h215v-1044h-215zM193 1210l126 346h293l-247 -346h-172z" />
<glyph unicode="&#xee;" horiz-adv-x="557" d="M-70 1210l234 346h227l236 -346h-197l-151 197l-152 -197h-197zM170 0v1044h215v-1044h-215z" />
<glyph unicode="&#xef;" horiz-adv-x="557" d="M-98 1380q0 60 40.5 100t100.5 40t101.5 -40t41.5 -100t-41.5 -101.5t-101.5 -41.5t-100.5 41.5t-40.5 101.5zM170 0v1044h215v-1044h-215zM377 1380q0 60 40.5 100t100.5 40t102 -40t42 -100t-42 -101.5t-102 -41.5t-100.5 41.5t-40.5 101.5z" />
<glyph unicode="&#xf0;" horiz-adv-x="1253" d="M88 526q0 152 65 275t182 193.5t263 70.5q135 0 238 -64q-72 97 -205 216l-256 -93l-49 115l192 70q-125 90 -192 125h323q29 -23 66 -56l211 76l49 -115l-158 -55q176 -174 262 -349t86 -374q0 -145 -44 -259t-120 -183t-170.5 -104t-201.5 -35q-237 0 -389 154.5 t-152 391.5zM305 524q0 -158 89 -260t233 -102q143 0 232 102t89 260q0 157 -89 258t-232 101t-232.5 -101t-89.5 -258z" />
<glyph unicode="&#xf1;" d="M154 0v1044h215v-178q142 199 346 199q157 0 260.5 -97t103.5 -274v-694h-215v657q0 105 -58 158t-147 53q-143 0 -290 -178v-690h-215zM281 1270q0 125 59.5 187.5t146.5 62.5q39 0 76 -15.5t61 -34t52 -34t51 -15.5q33 0 50.5 24t17.5 60h143q0 -128 -60.5 -189 t-148.5 -61q-37 0 -74 15t-61 33.5t-52 33.5t-50 15q-34 0 -50 -23.5t-16 -58.5h-145z" />
<glyph unicode="&#xf2;" horiz-adv-x="1284" d="M88 526q0 152 72.5 275.5t199.5 193.5t283 70q237 0 395 -154t158 -385q0 -234 -158 -390t-395 -156q-116 0 -219 41.5t-177 113.5t-116.5 174t-42.5 217zM305 524q0 -157 96.5 -259.5t241.5 -102.5t240.5 102t95.5 260q0 155 -95.5 257t-240.5 102t-241.5 -102 t-96.5 -257zM309 1556h293l127 -346h-172z" />
<glyph unicode="&#xf3;" horiz-adv-x="1284" d="M88 526q0 152 72.5 275.5t199.5 193.5t283 70q237 0 395 -154t158 -385q0 -234 -158 -390t-395 -156q-116 0 -219 41.5t-177 113.5t-116.5 174t-42.5 217zM305 524q0 -157 96.5 -259.5t241.5 -102.5t240.5 102t95.5 260q0 155 -95.5 257t-240.5 102t-241.5 -102 t-96.5 -257zM557 1210l127 346h293l-248 -346h-172z" />
<glyph unicode="&#xf4;" horiz-adv-x="1284" d="M88 526q0 152 72.5 275.5t199.5 193.5t283 70q237 0 395 -154t158 -385q0 -234 -158 -390t-395 -156q-116 0 -219 41.5t-177 113.5t-116.5 174t-42.5 217zM295 1210l233 346h228l235 -346h-196l-152 197l-151 -197h-197zM305 524q0 -157 96.5 -259.5t241.5 -102.5 t240.5 102t95.5 260q0 155 -95.5 257t-240.5 102t-241.5 -102t-96.5 -257z" />
<glyph unicode="&#xf5;" horiz-adv-x="1284" d="M88 526q0 152 72.5 275.5t199.5 193.5t283 70q237 0 395 -154t158 -385q0 -234 -158 -390t-395 -156q-116 0 -219 41.5t-177 113.5t-116.5 174t-42.5 217zM305 524q0 -157 96.5 -259.5t241.5 -102.5t240.5 102t95.5 260q0 155 -95.5 257t-240.5 102t-241.5 -102 t-96.5 -257zM313 1270q0 125 59.5 187.5t147.5 62.5q39 0 76 -15.5t61 -34t52 -34t51 -15.5q33 0 50 24t17 60h144q0 -128 -60.5 -189t-148.5 -61q-37 0 -74 15t-61 33.5t-52.5 33.5t-50.5 15q-34 0 -49.5 -23.5t-15.5 -58.5h-146z" />
<glyph unicode="&#xf6;" horiz-adv-x="1284" d="M88 526q0 152 72.5 275.5t199.5 193.5t283 70q237 0 395 -154t158 -385q0 -234 -158 -390t-395 -156q-116 0 -219 41.5t-177 113.5t-116.5 174t-42.5 217zM266 1380q0 60 41 100t101 40t101.5 -40t41.5 -100t-41.5 -101.5t-101.5 -41.5t-101 41.5t-41 101.5zM305 524 q0 -157 96.5 -259.5t241.5 -102.5t240.5 102t95.5 260q0 155 -95.5 257t-240.5 102t-241.5 -102t-96.5 -257zM741 1380q0 60 41 100t101 40t101.5 -40t41.5 -100t-41.5 -101.5t-101.5 -41.5t-101 41.5t-41 101.5z" />
<glyph unicode="&#xf7;" horiz-adv-x="1292" d="M137 629v184h1018v-184h-1018zM512 305q0 57 39 96t96 39q58 0 96.5 -39t38.5 -96t-38.5 -95t-96.5 -38q-57 0 -96 38t-39 95zM512 1139q0 57 39 96t96 39q58 0 96.5 -39t38.5 -96t-38.5 -95t-96.5 -38q-57 0 -96 38t-39 95z" />
<glyph unicode="&#xf8;" horiz-adv-x="1284" d="M6 -41l205 215q-123 148 -123 352q0 152 72.5 275.5t199.5 193.5t283 70q184 0 326 -96l123 129h182l-209 -215q131 -147 131 -357q0 -234 -158 -390t-395 -156q-191 0 -336 104l-117 -125h-184zM305 524q0 -111 51 -196l191 200l284 297q-83 58 -188 58 q-145 0 -241.5 -102t-96.5 -257zM440 229q89 -67 203 -67q145 0 240.5 102t95.5 260q0 123 -59 209l-201 -207z" />
<glyph unicode="&#xf9;" d="M143 377v667h215v-643q0 -104 65 -163.5t155 -59.5q77 0 141.5 44.5t134.5 133.5v688h215v-1044h-215v190q-68 -100 -150 -155t-196 -55q-155 0 -260 105.5t-105 291.5zM285 1556h293l127 -346h-173z" />
<glyph unicode="&#xfa;" d="M143 377v667h215v-643q0 -104 65 -163.5t155 -59.5q77 0 141.5 44.5t134.5 133.5v688h215v-1044h-215v190q-68 -100 -150 -155t-196 -55q-155 0 -260 105.5t-105 291.5zM532 1210l127 346h293l-247 -346h-173z" />
<glyph unicode="&#xfb;" d="M143 377v667h215v-643q0 -104 65 -163.5t155 -59.5q77 0 141.5 44.5t134.5 133.5v688h215v-1044h-215v190q-68 -100 -150 -155t-196 -55q-155 0 -260 105.5t-105 291.5zM270 1210l234 346h227l236 -346h-197l-152 197l-151 -197h-197z" />
<glyph unicode="&#xfc;" d="M143 377v667h215v-643q0 -104 65 -163.5t155 -59.5q77 0 141.5 44.5t134.5 133.5v688h215v-1044h-215v190q-68 -100 -150 -155t-196 -55q-155 0 -260 105.5t-105 291.5zM242 1380q0 60 40.5 100t100.5 40t101.5 -40t41.5 -100t-41.5 -101.5t-101.5 -41.5t-100.5 41.5 t-40.5 101.5zM717 1380q0 60 40.5 100t100.5 40t101.5 -40t41.5 -100t-41.5 -101.5t-101.5 -41.5t-100.5 41.5t-40.5 101.5z" />
<glyph unicode="&#xfd;" horiz-adv-x="1144" d="M41 1044h240l317 -763l262 763h244l-567 -1390h-263l218 422zM487 1210l127 346h293l-248 -346h-172z" />
<glyph unicode="&#xfe;" horiz-adv-x="1294" d="M154 -348v1782h215v-539q133 170 350 170q215 0 350 -154t135 -389q0 -236 -134.5 -389t-350.5 -153q-214 0 -350 170v-498h-215zM369 336q115 -172 288 -172q147 0 239.5 102t92.5 258q0 154 -91 255.5t-234 101.5q-83 0 -160 -45t-135 -129v-371z" />
<glyph unicode="&#xff;" horiz-adv-x="1144" d="M41 1044h240l317 -763l262 763h244l-567 -1390h-263l218 422zM197 1380q0 60 40.5 100t100.5 40t101.5 -40t41.5 -100t-41.5 -101.5t-101.5 -41.5t-100.5 41.5t-40.5 101.5zM672 1380q0 60 40.5 100t100.5 40t101.5 -40t41.5 -100t-41.5 -101.5t-101.5 -41.5t-100.5 41.5 t-40.5 101.5z" />
<glyph unicode="&#x152;" horiz-adv-x="2236" d="M100 717q0 205 99.5 369t273.5 256t389 92h1221v-193h-780v-399h753v-187h-753v-462h780v-193h-1221q-215 0 -389 90.5t-273.5 255t-99.5 371.5zM326 717q0 -228 150 -373t384 -145h225v1036h-225q-231 0 -382.5 -146t-151.5 -372z" />
<glyph unicode="&#x153;" horiz-adv-x="2037" d="M88 526q0 233 152 386t387 153q134 0 244 -53t182 -148q69 96 176 148.5t241 52.5q217 0 348.5 -142t131.5 -372v-82h-781q15 -162 108 -238.5t267 -76.5q133 0 344 79v-194q-187 -59 -358 -59q-163 0 -283.5 53t-189.5 153q-72 -97 -183 -151.5t-247 -54.5 q-235 0 -387 155t-152 391zM305 524q0 -157 89.5 -258.5t232.5 -101.5t232 101.5t89 258.5q0 155 -89 256t-232 101t-232.5 -101t-89.5 -256zM1169 618h576q-18 133 -87 209t-188 76q-125 0 -203.5 -76t-97.5 -209z" />
<glyph unicode="&#x178;" horiz-adv-x="1415" d="M66 1434h272l371 -689l368 689h273l-531 -904v-530h-221v530zM332 1769q0 60 40.5 100t100.5 40t101.5 -40t41.5 -100t-41.5 -101.5t-101.5 -41.5t-100.5 41.5t-40.5 101.5zM807 1769q0 60 40.5 100t100.5 40t102 -40t42 -100t-42 -101.5t-102 -41.5t-100.5 41.5 t-40.5 101.5z" />
<glyph unicode="&#x2c6;" horiz-adv-x="1228" d="M266 1210l234 346h227l236 -346h-197l-152 197l-151 -197h-197z" />
<glyph unicode="&#x2dc;" horiz-adv-x="1228" d="M285 1270q0 125 59.5 187.5t147.5 62.5q49 0 94 -25t81 -49.5t64 -24.5q33 0 50.5 24t17.5 60h143q0 -128 -60.5 -189t-148.5 -61q-37 0 -74 15t-61 33.5t-52 33.5t-50 15q-34 0 -50 -23.5t-16 -58.5h-145z" />
<glyph unicode="&#x2000;" horiz-adv-x="973" />
<glyph unicode="&#x2001;" horiz-adv-x="1946" />
<glyph unicode="&#x2002;" horiz-adv-x="973" />
<glyph unicode="&#x2003;" horiz-adv-x="1946" />
<glyph unicode="&#x2004;" horiz-adv-x="648" />
<glyph unicode="&#x2005;" horiz-adv-x="486" />
<glyph unicode="&#x2006;" horiz-adv-x="324" />
<glyph unicode="&#x2007;" horiz-adv-x="324" />
<glyph unicode="&#x2008;" horiz-adv-x="243" />
<glyph unicode="&#x2009;" horiz-adv-x="389" />
<glyph unicode="&#x200a;" horiz-adv-x="108" />
<glyph unicode="&#x2010;" horiz-adv-x="804" d="M98 475v191h609v-191h-609z" />
<glyph unicode="&#x2011;" horiz-adv-x="804" d="M98 475v191h609v-191h-609z" />
<glyph unicode="&#x2012;" horiz-adv-x="804" d="M98 475v191h609v-191h-609z" />
<glyph unicode="&#x2013;" horiz-adv-x="1136" d="M98 483v174h942v-174h-942z" />
<glyph unicode="&#x2014;" horiz-adv-x="1955" d="M98 483v174h1762v-174h-1762z" />
<glyph unicode="&#x2018;" horiz-adv-x="503" d="M74 891l194 543h166l-98 -543h-262z" />
<glyph unicode="&#x2019;" horiz-adv-x="507" d="M72 893l98 543h262l-194 -543h-166z" />
<glyph unicode="&#x201a;" horiz-adv-x="503" d="M74 -293l98 543h262l-194 -543h-166z" />
<glyph unicode="&#x201c;" horiz-adv-x="837" d="M72 891l188 543h162l-96 -543h-254zM416 891l188 543h162l-96 -543h-254z" />
<glyph unicode="&#x201d;" horiz-adv-x="839" d="M72 893l96 543h254l-189 -543h-161zM416 893l96 543h254l-188 -543h-162z" />
<glyph unicode="&#x201e;" horiz-adv-x="839" d="M72 -293l96 543h254l-189 -543h-161zM416 -293l96 543h254l-188 -543h-162z" />
<glyph unicode="&#x2022;" horiz-adv-x="854" d="M104 549q0 137 94 232.5t230 95.5t232 -95.5t96 -232.5q0 -136 -95 -227t-233 -91q-137 0 -230.5 91t-93.5 227z" />
<glyph unicode="&#x2026;" horiz-adv-x="1427" d="M119 119q0 60 40.5 101.5t100.5 41.5q61 0 102 -41.5t41 -101.5t-40.5 -99.5t-102.5 -39.5q-60 0 -100.5 39.5t-40.5 99.5zM571 119q0 60 41 101.5t101 41.5q61 0 102 -41.5t41 -101.5t-40.5 -99.5t-102.5 -39.5q-60 0 -101 39.5t-41 99.5zM1026 119q0 60 40.5 101.5 t100.5 41.5q61 0 102.5 -41.5t41.5 -101.5t-41 -99.5t-103 -39.5q-60 0 -100.5 39.5t-40.5 99.5z" />
<glyph unicode="&#x202f;" horiz-adv-x="389" />
<glyph unicode="&#x2039;" horiz-adv-x="661" d="M90 537l277 376h219l-275 -376l275 -377h-219z" />
<glyph unicode="&#x203a;" horiz-adv-x="661" d="M76 160l274 377l-274 376h219l276 -376l-276 -377h-219z" />
<glyph unicode="&#x205f;" horiz-adv-x="486" />
<glyph unicode="&#x20ac;" horiz-adv-x="1589" d="M119 475v143h170q-6 47 -6 97q0 69 8 121h-172v143h207q74 217 261.5 346t454.5 129q179 0 404 -72v-202q-234 98 -406 98q-176 0 -301.5 -80t-189.5 -219h549v-143h-592q-10 -65 -10 -121q0 -51 6 -97h596v-143h-557q59 -147 186.5 -233t310.5 -86q176 0 408 100v-203 q-220 -73 -404 -73q-274 0 -465 135.5t-260 359.5h-198z" />
<glyph unicode="&#x2122;" horiz-adv-x="1542" d="M102 1329v105h535v-105h-207v-526h-125v526h-203zM748 803v631h184l162 -400l161 400h185v-631h-117v528l-223 -528h-13l-221 528v-528h-118z" />
<glyph unicode="&#x25fc;" horiz-adv-x="1044" d="M0 0v1044h1044v-1044h-1044z" />
</font>
</defs>
</svg>
