<svg width="28" height="28" viewBox="0 0 28 28" fill="none" xmlns="http://www.w3.org/2000/svg">
<path d="M14 28C21.732 28 28 21.732 28 14C28 6.26801 21.732 0 14 0C6.26801 0 0 6.26801 0 14C0 21.732 6.26801 28 14 28Z" fill="#627EEA"/>
<path d="M14.4357 3.5V11.2613L20.9956 14.1925L14.4357 3.5Z" fill="white" fill-opacity="0.602"/>
<path d="M14.4357 3.5L7.875 14.1925L14.4357 11.2613V3.5Z" fill="white"/>
<path d="M14.4357 19.2223V24.4959L21 15.4143L14.4357 19.2223Z" fill="white" fill-opacity="0.602"/>
<path d="M14.4357 24.4959V19.2214L7.875 15.4143L14.4357 24.4959Z" fill="white"/>
<path d="M14.4357 18.0015L20.9956 14.1926L14.4357 11.2631V18.0015Z" fill="white" fill-opacity="0.2"/>
<path d="M7.875 14.1926L14.4357 18.0015V11.2631L7.875 14.1926Z" fill="white" fill-opacity="0.602"/>
</svg>
