<svg width="90" height="90" viewBox="0 0 90 90" fill="none" xmlns="http://www.w3.org/2000/svg">
<path d="M0 45C0 20.1472 20.1472 0 45 0V0C69.8528 0 90 20.1472 90 45V45C90 69.8528 69.8528 90 45 90V90C20.1472 90 0 69.8528 0 45V45Z" fill="black"/>
<path fill-rule="evenodd" clip-rule="evenodd" d="M32.7837 21.0183L66.5194 29.0349H72.2887V69H17.7114V53.9539H28.5371C28.7277 53.9539 28.8825 53.7985 28.8825 53.6085V44.4271C28.8825 44.2364 28.7277 44.0817 28.5371 44.0817H17.7114V29.0349H29.5899L31.9651 21.4832C32.0742 21.1378 32.4328 20.9361 32.7837 21.0183ZM33.0905 22.5119L31.0386 29.0349H60.5414L33.0905 22.5119ZM37.8292 42.0067H35.2385V47.4472H37.8292V42.0067ZM51.5108 42.0067H54.1015V47.4472H51.5108V42.0067ZM17.7114 44.7718H28.1916V53.2624H17.7114V44.7718ZM26.2024 49.3622C26.2913 49.3624 26.3422 49.3625 26.3478 49.3625C26.5377 49.3625 26.6932 49.2092 26.6932 49.0185C26.6932 48.8278 26.5384 48.6731 26.3478 48.6717C26.0845 48.6703 19.8876 48.6572 19.3149 48.6717C19.1242 48.6772 18.9736 48.8361 18.9784 49.0268C18.9833 49.214 19.1367 49.3625 19.3239 49.3625H19.3329C19.8495 49.3493 25.2419 49.3603 26.2024 49.3622Z" fill="white"/>
</svg>
