<svg width="95" height="58" viewBox="0 0 95 58" fill="none" xmlns="http://www.w3.org/2000/svg">
<path d="M0.527344 27V26.2773H1.40625C2.17448 26.2773 2.76042 26.1602 3.16406 25.9258C3.58073 25.6784 3.88672 25.3464 4.08203 24.9297C4.19922 24.6562 4.25781 23.8359 4.25781 22.4688V5.04688C4.25781 3.69271 4.1862 2.84635 4.04297 2.50781C3.89974 2.16927 3.60677 1.8763 3.16406 1.62891C2.73438 1.36849 2.14844 1.23828 1.40625 1.23828H0.527344V0.515625H12.3828C15.5469 0.515625 18.0924 0.945312 20.0195 1.80469C22.3763 2.85938 24.1602 4.45443 25.3711 6.58984C26.5951 8.72526 27.207 11.1406 27.207 13.8359C27.207 15.6979 26.9076 17.4167 26.3086 18.9922C25.7096 20.5547 24.9349 21.8503 23.9844 22.8789C23.0339 23.8945 21.9336 24.7148 20.6836 25.3398C19.4466 25.9518 17.9297 26.4271 16.1328 26.7656C15.3385 26.9219 14.0885 27 12.3828 27H0.527344ZM10.625 2.01953V22.6836C10.625 23.7773 10.6771 24.4479 10.7812 24.6953C10.8854 24.9427 11.0612 25.1315 11.3086 25.2617C11.6602 25.457 12.168 25.5547 12.832 25.5547C15.0065 25.5547 16.6667 24.8125 17.8125 23.3281C19.375 21.3229 20.1562 18.2109 20.1562 13.9922C20.1562 10.5938 19.6224 7.87891 18.5547 5.84766C17.7083 4.25911 16.6211 3.17839 15.293 2.60547C14.3555 2.20182 12.7995 2.00651 10.625 2.01953ZM39.8047 2.03906V12.8203H40.332C42.0117 12.8203 43.2292 12.293 43.9844 11.2383C44.7396 10.1836 45.2214 8.6276 45.4297 6.57031H46.1719V20.4375H45.4297C45.2734 18.9271 44.9414 17.6901 44.4336 16.7266C43.9388 15.763 43.3594 15.1185 42.6953 14.793C42.0312 14.4544 41.0677 14.2852 39.8047 14.2852V21.7461C39.8047 23.2044 39.8633 24.0964 39.9805 24.4219C40.1107 24.7474 40.3451 25.0143 40.6836 25.2227C41.0221 25.431 41.569 25.5352 42.3242 25.5352H43.9062C46.3802 25.5352 48.3594 24.9622 49.8438 23.8164C51.3411 22.6706 52.4154 20.9258 53.0664 18.582H53.7891L52.5977 27H29.707V26.2773H30.5859C31.3542 26.2773 31.9727 26.1406 32.4414 25.8672C32.7799 25.6849 33.0404 25.3724 33.2227 24.9297C33.3659 24.6172 33.4375 23.7969 33.4375 22.4688V5.04688C33.4375 3.84896 33.4049 3.11328 33.3398 2.83984C33.2096 2.38411 32.9688 2.03255 32.6172 1.78516C32.1224 1.42057 31.4453 1.23828 30.5859 1.23828H29.707V0.515625H51.875V8.34766H51.1328C50.7552 6.43359 50.2214 5.0599 49.5312 4.22656C48.8542 3.39323 47.8906 2.78125 46.6406 2.39062C45.9115 2.15625 44.5443 2.03906 42.5391 2.03906H39.8047ZM66.582 2.03906V12.918H67.3438C68.5156 12.918 69.4727 12.7422 70.2148 12.3906C70.957 12.0391 71.582 11.4466 72.0898 10.6133C72.6107 9.77995 72.9492 8.65365 73.1055 7.23438H73.7891V20.5352H73.1055C72.8581 18.0221 72.181 16.3685 71.0742 15.5742C69.9805 14.7669 68.737 14.3633 67.3438 14.3633H66.582V22.4688C66.582 23.8229 66.6536 24.6693 66.7969 25.0078C66.9531 25.3464 67.2461 25.6458 67.6758 25.9062C68.1185 26.1536 68.7109 26.2773 69.4531 26.2773H70.332V27H56.4844V26.2773H57.3633C58.1315 26.2773 58.75 26.1406 59.2188 25.8672C59.5573 25.6849 59.8177 25.3724 60 24.9297C60.1432 24.6172 60.2148 23.7969 60.2148 22.4688V5.04688C60.2148 3.69271 60.1432 2.84635 60 2.50781C59.8568 2.16927 59.5638 1.8763 59.1211 1.62891C58.6914 1.36849 58.1055 1.23828 57.3633 1.23828H56.4844V0.515625H78.8281V8.11328H78.0273C77.8451 6.32943 77.3763 5.00781 76.6211 4.14844C75.8789 3.28906 74.7982 2.68359 73.3789 2.33203C72.5977 2.13672 71.1523 2.03906 69.043 2.03906H66.582ZM94.6875 26.2773V27H80.8398V26.2773H81.7188C82.487 26.2773 83.1055 26.1406 83.5742 25.8672C83.9128 25.6849 84.1732 25.3724 84.3555 24.9297C84.4987 24.6172 84.5703 23.7969 84.5703 22.4688V5.04688C84.5703 3.69271 84.4987 2.84635 84.3555 2.50781C84.2122 2.16927 83.9193 1.8763 83.4766 1.62891C83.0469 1.36849 82.4609 1.23828 81.7188 1.23828H80.8398V0.515625H94.6875V1.23828H93.8086C93.0404 1.23828 92.4219 1.375 91.9531 1.64844C91.6146 1.83073 91.3477 2.14323 91.1523 2.58594C91.0091 2.89844 90.9375 3.71875 90.9375 5.04688V22.4688C90.9375 23.8229 91.0091 24.6693 91.1523 25.0078C91.3086 25.3464 91.6016 25.6458 92.0312 25.9062C92.474 26.1536 93.0664 26.2773 93.8086 26.2773H94.6875ZM9.03125 46.7402V53.0488C9.03125 54.2663 9.10319 55.0355 9.24707 55.3564C9.40202 55.6663 9.66764 55.9154 10.0439 56.1035C10.4202 56.2917 11.123 56.3857 12.1523 56.3857V57H0.630859V56.3857C1.67122 56.3857 2.37402 56.2917 2.73926 56.1035C3.11556 55.9043 3.37565 55.6497 3.51953 55.3398C3.67448 55.0299 3.75195 54.2663 3.75195 53.0488V38.4395C3.75195 37.222 3.67448 36.4583 3.51953 36.1484C3.37565 35.8275 3.11556 35.5729 2.73926 35.3848C2.36296 35.1966 1.66016 35.1025 0.630859 35.1025V34.4883H11.0898C13.8125 34.4883 15.8047 34.6764 17.0664 35.0527C18.3281 35.429 19.3574 36.1263 20.1543 37.1445C20.9512 38.1517 21.3496 39.3359 21.3496 40.6973C21.3496 42.3574 20.752 43.7298 19.5566 44.8145C18.793 45.5007 17.7249 46.0153 16.3525 46.3584L21.7646 53.9785C22.473 54.9635 22.9766 55.5778 23.2754 55.8213C23.7292 56.1644 24.2549 56.3525 24.8525 56.3857V57H17.7637L10.5088 46.7402H9.03125ZM9.03125 35.7002V45.5615H9.97754C11.516 45.5615 12.667 45.4232 13.4307 45.1465C14.1943 44.8587 14.792 44.3496 15.2236 43.6191C15.6663 42.8776 15.8877 41.9147 15.8877 40.7305C15.8877 39.015 15.4837 37.7477 14.6758 36.9287C13.8789 36.1097 12.5895 35.7002 10.8076 35.7002H9.03125ZM25.3672 34.4883H36.9883V35.1025H36.4072C35.5329 35.1025 34.9297 35.1966 34.5977 35.3848C34.2767 35.5618 34.0443 35.8109 33.9004 36.1318C33.7676 36.4528 33.7012 37.2552 33.7012 38.5391V49.5625C33.7012 51.5768 33.8506 52.9105 34.1494 53.5635C34.4593 54.2165 34.9629 54.7588 35.6602 55.1904C36.3574 55.6221 37.2373 55.8379 38.2998 55.8379C39.5173 55.8379 40.5521 55.5667 41.4043 55.0244C42.2676 54.471 42.9095 53.7129 43.3301 52.75C43.7617 51.7871 43.9775 50.1104 43.9775 47.7197V38.5391C43.9775 37.5319 43.8724 36.8125 43.6621 36.3809C43.4518 35.9492 43.1862 35.6504 42.8652 35.4844C42.3672 35.2298 41.6644 35.1025 40.7568 35.1025V34.4883H48.543V35.1025H48.0781C47.4473 35.1025 46.9215 35.2298 46.501 35.4844C46.0804 35.7389 45.776 36.1208 45.5879 36.6299C45.444 36.984 45.3721 37.6204 45.3721 38.5391V47.0889C45.3721 49.734 45.195 51.6432 44.8408 52.8164C44.4977 53.9896 43.651 55.0687 42.3008 56.0537C40.9505 57.0387 39.1077 57.5312 36.7725 57.5312C34.8245 57.5312 33.3193 57.2712 32.2568 56.751C30.807 56.0426 29.7832 55.1351 29.1855 54.0283C28.5879 52.9215 28.2891 51.4329 28.2891 49.5625V38.5391C28.2891 37.2441 28.2171 36.4417 28.0732 36.1318C27.9294 35.8109 27.6803 35.5563 27.3262 35.3682C26.972 35.18 26.319 35.0915 25.3672 35.1025V34.4883ZM65.1113 33.9736L65.2939 41.4775H64.6133C64.2923 39.596 63.501 38.0853 62.2393 36.9453C60.9886 35.7943 59.6328 35.2188 58.1719 35.2188C57.043 35.2188 56.1465 35.5231 55.4824 36.1318C54.8294 36.7295 54.5029 37.4212 54.5029 38.207C54.5029 38.7051 54.6191 39.1478 54.8516 39.5352C55.1725 40.0553 55.6872 40.57 56.3955 41.0791C56.9157 41.4443 58.1165 42.0918 59.998 43.0215C62.6322 44.3164 64.4085 45.5394 65.3271 46.6904C66.2347 47.8415 66.6885 49.1585 66.6885 50.6416C66.6885 52.5231 65.9525 54.1445 64.4805 55.5059C63.0195 56.8561 61.1602 57.5312 58.9023 57.5312C58.194 57.5312 57.5244 57.4593 56.8936 57.3154C56.2627 57.1715 55.4714 56.9004 54.5195 56.502C53.9883 56.2806 53.5511 56.1699 53.208 56.1699C52.9202 56.1699 52.6159 56.2806 52.2949 56.502C51.974 56.7233 51.7139 57.0609 51.5146 57.5146H50.9004V49.0146H51.5146C52.0016 51.4053 52.9368 53.2314 54.3203 54.4932C55.7148 55.7438 57.2145 56.3691 58.8193 56.3691C60.0589 56.3691 61.0439 56.0316 61.7744 55.3564C62.516 54.6813 62.8867 53.8955 62.8867 52.999C62.8867 52.4678 62.7428 51.9531 62.4551 51.4551C62.1784 50.957 61.7523 50.4867 61.1768 50.0439C60.6012 49.5902 59.583 49.0036 58.1221 48.2842C56.0745 47.277 54.6025 46.4193 53.7061 45.7109C52.8096 45.0026 52.1178 44.2113 51.6309 43.3369C51.1549 42.4626 50.917 41.4997 50.917 40.4482C50.917 38.6553 51.5755 37.1279 52.8926 35.8662C54.2096 34.6045 55.8698 33.9736 57.873 33.9736C58.6035 33.9736 59.3118 34.0622 59.998 34.2393C60.5182 34.3721 61.1491 34.6211 61.8906 34.9863C62.6432 35.3405 63.1689 35.5176 63.4678 35.5176C63.7555 35.5176 63.9824 35.429 64.1484 35.252C64.3145 35.0749 64.4694 34.6488 64.6133 33.9736H65.1113ZM77.3633 46.1758V53.1484C77.3633 54.2995 77.4242 55.0189 77.5459 55.3066C77.6787 55.5944 77.9277 55.849 78.293 56.0703C78.6693 56.2806 79.1729 56.3857 79.8037 56.3857H80.5508V57H68.7803V56.3857H69.5273C70.1803 56.3857 70.7061 56.2695 71.1045 56.0371C71.3923 55.8822 71.6136 55.6165 71.7686 55.2402C71.8903 54.9746 71.9512 54.2773 71.9512 53.1484V38.3398C71.9512 37.1888 71.8903 36.4694 71.7686 36.1816C71.6468 35.8939 71.3978 35.6449 71.0215 35.4346C70.6562 35.2132 70.1582 35.1025 69.5273 35.1025H68.7803V34.4883H80.5508V35.1025H79.8037C79.1507 35.1025 78.625 35.2188 78.2266 35.4512C77.9388 35.6061 77.7119 35.8717 77.5459 36.248C77.4242 36.5137 77.3633 37.2109 77.3633 38.3398V44.7148H85.3154V38.3398C85.3154 37.1888 85.2546 36.4694 85.1328 36.1816C85.0111 35.8939 84.762 35.6449 84.3857 35.4346C84.0094 35.2132 83.5059 35.1025 82.875 35.1025H82.1445V34.4883H93.8984V35.1025H93.168C92.5039 35.1025 91.9782 35.2188 91.5908 35.4512C91.3031 35.6061 91.0762 35.8717 90.9102 36.248C90.7884 36.5137 90.7275 37.2109 90.7275 38.3398V53.1484C90.7275 54.2995 90.7884 55.0189 90.9102 55.3066C91.0319 55.5944 91.2809 55.849 91.6572 56.0703C92.0335 56.2806 92.5371 56.3857 93.168 56.3857H93.8984V57H82.1445V56.3857H82.875C83.5391 56.3857 84.0648 56.2695 84.4521 56.0371C84.7399 55.8822 84.9668 55.6165 85.1328 55.2402C85.2546 54.9746 85.3154 54.2773 85.3154 53.1484V46.1758H77.3633Z" fill="white"/>
</svg>
